<?xml version="1.0" encoding="UTF-8"?>
<svg xmlns="http://www.w3.org/2000/svg" xmlns:xlink="http://www.w3.org/1999/xlink" width="151pt" height="146pt" viewBox="0 0 151 146" version="1.1">
<g id="surface1">
<path style=" stroke:none;fill-rule:nonzero;fill:rgb(82.398987%,67.498779%,16.899109%);fill-opacity:1;" d="M 72.941406 117.691406 L 49.925781 117.691406 C 51.015625 108.746094 35.691406 104.972656 27.5625 92.105469 C 22.0625 80.59375 18.371094 68.203125 30.238281 45.007813 C 33.789063 37.328125 43.109375 29.261719 45.609375 18.507813 C 45.875 17.183594 47.691406 17.375 47.730469 18.507813 C 47.117188 37.378906 27.183594 53.480469 33.640625 73.5 C 35.992188 80.789063 47.125 95.773438 53.40625 97.25 C 65.445313 99.898438 69.230469 87.105469 61.433594 84.832031 C 54.921875 82.714844 48.109375 92.554688 43.945313 84.226563 C 40.804688 71.214844 65.597656 66.433594 75.816406 82.863281 C 86.570313 67.269531 109.097656 70.609375 107.011719 84.226563 C 104.96875 92.707031 87.703125 78.546875 85.8125 88.316406 C 84.933594 95.632813 92.703125 100.960938 99.289063 96.492188 C 106.101563 91.269531 109.789063 86.339844 112.910156 81.921875 C 128.816406 56.363281 106.40625 43.949219 102.921875 18.585938 C 102.808594 17.242188 105.460938 16.730469 105.441406 18.585938 C 105.820313 30.167969 123.257813 42.480469 125.90625 54.710938 C 138.929688 101.347656 100.804688 101.796875 100.804688 117.847656 L 77.9375 117.863281 C 78.347656 108.917969 77.40625 99.066406 75.363281 98.613281 C 73.621094 98.765625 72.785156 106.382813 72.941406 117.691406 "/>
<path style=" stroke:none;fill-rule:nonzero;fill:rgb(82.398987%,67.498779%,16.899109%);fill-opacity:1;" d="M 55.832031 69.992188 C 53.296875 66.660156 52.691406 62.015625 54.011719 56.0625 C 40.386719 52.125 40.535156 37.363281 54.847656 32.289063 C 50.152344 20.175781 64.308594 11.089844 73.546875 18.359375 C 69.710938 9.324219 56.4375 11.242188 50.902344 22.679688 C 50.117188 25.207031 49.09375 27.972656 51.136719 31.378906 C 46.792969 33.386719 42.582031 38.875 40.441406 45.605469 C 36.296875 57.878906 32.964844 70.902344 40.6875 80.140625 C 43.46875 75.917969 48.515625 72.535156 55.832031 69.992188 "/>
<path style=" stroke:none;fill-rule:nonzero;fill:rgb(82.398987%,67.498779%,16.899109%);fill-opacity:1;" d="M 61.355469 37.363281 C 57.421875 32.363281 44.398438 35.394531 46.140625 46.523438 C 48.636719 56.667969 63.324219 55.457031 60.976563 46.675781 C 60.675781 44.78125 57.796875 45.3125 58.480469 41.828125 C 58.746094 39.425781 55.753906 39.710938 55.90625 42.359375 C 54.375 43.050781 53.996094 44.589844 54.769531 46.976563 C 53.855469 47.34375 53.476563 48.226563 53.632813 49.628906 C 44.777344 46.070313 48.941406 34.105469 61.355469 37.363281 "/>
<path style=" stroke:none;fill-rule:nonzero;fill:rgb(82.398987%,67.498779%,16.899109%);fill-opacity:1;" d="M 46.667969 88.84375 C 49.683594 90.667969 53.324219 89.65625 55.574219 88.042969 C 58.773438 85.226563 62.320313 85.667969 63.023438 88.84375 C 63.78125 96.945313 53.558594 99.027344 46.667969 88.84375 "/>
<path style=" stroke:none;fill-rule:nonzero;fill:rgb(82.398987%,67.498779%,16.899109%);fill-opacity:1;" d="M 102.996094 37.363281 C 99.0625 32.363281 86.039063 35.394531 87.78125 46.523438 C 90.277344 56.667969 104.96875 55.457031 102.621094 46.675781 C 102.316406 44.78125 99.441406 45.3125 100.121094 41.828125 C 100.386719 39.425781 97.394531 39.710938 97.546875 42.359375 C 96.015625 43.050781 95.636719 44.589844 96.410156 46.976563 C 95.496094 47.34375 95.121094 48.226563 95.277344 49.628906 C 86.417969 46.070313 90.582031 34.105469 102.996094 37.363281 "/>
<path style=" stroke:none;fill-rule:nonzero;fill:rgb(82.398987%,67.498779%,16.899109%);fill-opacity:1;" d="M 72.5625 19.949219 C 68.625 14.949219 55.601563 17.980469 57.34375 29.109375 C 59.84375 39.253906 74.53125 38.042969 72.183594 29.261719 C 71.882813 27.367188 69.003906 27.898438 69.683594 24.414063 C 69.949219 22.011719 66.960938 22.296875 67.109375 24.945313 C 65.582031 25.636719 65.203125 27.175781 65.976563 29.5625 C 65.0625 29.929688 64.683594 30.8125 64.839844 32.214844 C 55.980469 28.65625 60.144531 16.691406 72.5625 19.949219 "/>
<path style=" stroke:none;fill-rule:nonzero;fill:rgb(82.398987%,67.498779%,16.899109%);fill-opacity:1;" d="M 92.550781 19.949219 C 88.613281 14.949219 75.589844 17.980469 77.332031 29.109375 C 79.832031 39.253906 94.519531 38.042969 92.171875 29.261719 C 91.867188 27.367188 88.992188 27.898438 89.671875 24.414063 C 89.9375 22.011719 86.949219 22.296875 87.097656 24.945313 C 85.566406 25.636719 85.191406 27.175781 85.964844 29.5625 C 85.050781 29.929688 84.671875 30.8125 84.828125 32.214844 C 75.96875 28.65625 80.132813 16.691406 92.550781 19.949219 "/>
<path style=" stroke:none;fill-rule:nonzero;fill:rgb(82.398987%,67.498779%,16.899109%);fill-opacity:1;" d="M 81.648438 37.363281 C 77.710938 32.363281 64.6875 35.394531 66.429688 46.523438 C 68.929688 56.667969 83.617188 55.457031 81.269531 46.675781 C 80.964844 44.78125 78.089844 45.3125 78.769531 41.828125 C 79.035156 39.425781 76.046875 39.710938 76.195313 42.359375 C 74.664063 43.050781 74.285156 44.589844 75.0625 46.976563 C 74.148438 47.34375 73.769531 48.226563 73.925781 49.628906 C 65.066406 46.070313 69.230469 34.105469 81.648438 37.363281 "/>
<path style=" stroke:none;fill-rule:nonzero;fill:rgb(82.398987%,67.498779%,16.899109%);fill-opacity:1;" d="M 71.351563 54.625 C 67.414063 49.628906 54.390625 52.65625 56.132813 63.785156 C 58.753906 74.433594 73.386719 72.972656 70.972656 63.9375 C 70.667969 62.042969 67.792969 62.574219 68.472656 59.089844 C 68.738281 56.6875 65.75 56.972656 65.898438 59.621094 C 64.367188 60.3125 63.992188 61.851563 64.765625 64.238281 C 63.851563 64.605469 63.472656 65.488281 63.628906 66.890625 C 54.769531 63.332031 58.933594 51.367188 71.351563 54.625 "/>
<path style=" stroke:none;fill-rule:nonzero;fill:rgb(82.398987%,67.498779%,16.899109%);fill-opacity:1;" d="M 93.457031 54.625 C 89.523438 49.628906 76.5 52.65625 78.242188 63.785156 C 80.863281 74.433594 95.496094 72.972656 93.082031 63.9375 C 92.777344 62.042969 89.902344 62.574219 90.582031 59.089844 C 90.847656 56.6875 87.855469 56.972656 88.007813 59.621094 C 86.476563 60.3125 86.097656 61.851563 86.871094 64.238281 C 85.957031 64.605469 85.578125 65.488281 85.734375 66.890625 C 76.878906 63.332031 81.042969 51.367188 93.457031 54.625 "/>
<path style=" stroke:none;fill-rule:nonzero;fill:rgb(82.398987%,67.498779%,16.899109%);fill-opacity:1;" d="M 75.402344 76.882813 C 74.25 74.996094 72.972656 73.507813 71.578125 72.414063 C 73.117188 70.976563 74.441406 69.363281 75.554688 67.570313 C 76.476563 69.316406 77.726563 70.957031 79.300781 72.492188 C 77.871094 73.515625 76.570313 74.980469 75.402344 76.882813 "/>
<path style=" stroke:none;fill-rule:nonzero;fill:rgb(82.398987%,67.498779%,16.899109%);fill-opacity:1;" d="M 104.058594 88.84375 C 101.042969 90.667969 97.402344 89.65625 95.152344 88.042969 C 91.957031 85.226563 88.40625 85.667969 87.703125 88.84375 C 86.949219 96.945313 97.167969 99.027344 104.058594 88.84375 "/>
<path style=" stroke:none;fill-rule:nonzero;fill:rgb(82.398987%,67.498779%,16.899109%);fill-opacity:1;" d="M 55.339844 119.90625 L 55.339844 124.34375 L 54.988281 124.34375 C 54.875 123.492188 54.671875 122.8125 54.378906 122.308594 C 54.082031 121.800781 53.664063 121.402344 53.121094 121.105469 C 52.578125 120.808594 52.015625 120.660156 51.433594 120.660156 C 50.773438 120.660156 50.230469 120.859375 49.800781 121.261719 C 49.371094 121.664063 49.15625 122.121094 49.15625 122.632813 C 49.15625 123.023438 49.292969 123.378906 49.5625 123.703125 C 49.957031 124.175781 50.886719 124.808594 52.363281 125.597656 C 53.5625 126.242188 54.382813 126.734375 54.824219 127.078125 C 55.261719 127.421875 55.597656 127.828125 55.835938 128.296875 C 56.074219 128.765625 56.191406 129.253906 56.191406 129.765625 C 56.191406 130.738281 55.8125 131.574219 55.058594 132.28125 C 54.304688 132.984375 53.332031 133.335938 52.144531 133.335938 C 51.773438 133.335938 51.421875 133.308594 51.09375 133.25 C 50.898438 133.21875 50.492188 133.101563 49.875 132.902344 C 49.261719 132.699219 48.871094 132.597656 48.707031 132.597656 C 48.546875 132.597656 48.421875 132.648438 48.332031 132.742188 C 48.242188 132.839844 48.171875 133.035156 48.128906 133.335938 L 47.78125 133.335938 L 47.78125 128.9375 L 48.128906 128.9375 C 48.292969 129.859375 48.511719 130.546875 48.792969 131.003906 C 49.070313 131.460938 49.496094 131.84375 50.066406 132.144531 C 50.636719 132.449219 51.265625 132.597656 51.945313 132.597656 C 52.734375 132.597656 53.359375 132.390625 53.816406 131.972656 C 54.277344 131.554688 54.503906 131.058594 54.503906 130.488281 C 54.503906 130.171875 54.417969 129.851563 54.246094 129.53125 C 54.074219 129.207031 53.804688 128.90625 53.4375 128.628906 C 53.191406 128.4375 52.519531 128.035156 51.417969 127.421875 C 50.316406 126.808594 49.53125 126.320313 49.066406 125.953125 C 48.597656 125.589844 48.246094 125.183594 48.003906 124.742188 C 47.765625 124.300781 47.644531 123.816406 47.644531 123.285156 C 47.644531 122.363281 47.996094 121.570313 48.707031 120.902344 C 49.414063 120.238281 50.316406 119.90625 51.410156 119.90625 C 52.09375 119.90625 52.820313 120.070313 53.585938 120.40625 C 53.9375 120.5625 54.1875 120.640625 54.335938 120.640625 C 54.5 120.640625 54.632813 120.59375 54.738281 120.496094 C 54.84375 120.398438 54.925781 120.199219 54.988281 119.90625 L 55.339844 119.90625 "/>
<path style=" stroke:none;fill-rule:evenodd;fill:rgb(82.398987%,67.498779%,16.899109%);fill-opacity:1;" d="M 64.324219 128.761719 L 59.351563 128.761719 L 58.488281 130.773438 C 58.277344 131.273438 58.167969 131.644531 58.167969 131.890625 C 58.167969 132.085938 58.261719 132.257813 58.449219 132.40625 C 58.632813 132.554688 59.035156 132.652344 59.652344 132.695313 L 59.652344 133.046875 L 55.601563 133.046875 L 55.601563 132.695313 C 56.136719 132.601563 56.484375 132.476563 56.640625 132.328125 C 56.964844 132.023438 57.320313 131.40625 57.710938 130.480469 L 62.230469 119.90625 L 62.550781 119.90625 L 67.019531 130.59375 C 67.378906 131.453125 67.703125 132.011719 67.996094 132.265625 C 68.289063 132.523438 68.699219 132.664063 69.222656 132.695313 L 69.222656 133.046875 L 64.160156 133.046875 L 64.160156 132.695313 C 64.671875 132.671875 65.015625 132.585938 65.195313 132.441406 C 65.375 132.292969 65.464844 132.117188 65.464844 131.910156 C 65.464844 131.632813 65.339844 131.191406 65.085938 130.589844 Z M 64.035156 128.0625 L 61.871094 122.878906 L 59.648438 128.0625 Z M 64.035156 128.0625 "/>
<path style=" stroke:none;fill-rule:evenodd;fill:rgb(82.398987%,67.498779%,16.899109%);fill-opacity:1;" d="M 76.5625 128.761719 L 71.585938 128.761719 L 70.726563 130.773438 C 70.511719 131.273438 70.402344 131.644531 70.402344 131.890625 C 70.402344 132.085938 70.496094 132.257813 70.683594 132.40625 C 70.867188 132.554688 71.269531 132.652344 71.890625 132.695313 L 71.890625 133.046875 L 67.835938 133.046875 L 67.835938 132.695313 C 68.371094 132.601563 68.71875 132.476563 68.878906 132.328125 C 69.199219 132.023438 69.554688 131.40625 69.945313 130.480469 L 74.46875 119.90625 L 74.785156 119.90625 L 79.253906 130.59375 C 79.613281 131.453125 79.9375 132.011719 80.230469 132.265625 C 80.527344 132.523438 80.933594 132.664063 81.457031 132.695313 L 81.457031 133.046875 L 76.394531 133.046875 L 76.394531 132.695313 C 76.90625 132.671875 77.25 132.585938 77.429688 132.441406 C 77.609375 132.292969 77.699219 132.117188 77.699219 131.910156 C 77.699219 131.632813 77.574219 131.191406 77.320313 130.589844 Z M 76.269531 128.0625 L 74.105469 122.878906 L 71.882813 128.0625 Z M 76.269531 128.0625 "/>
<path style=" stroke:none;fill-rule:evenodd;fill:rgb(82.398987%,67.498779%,16.899109%);fill-opacity:1;" d="M 93.027344 133.046875 L 89.585938 133.046875 L 85.222656 127.035156 C 84.90625 127.050781 84.652344 127.054688 84.453125 127.054688 C 84.375 127.054688 84.289063 127.054688 84.195313 127.050781 C 84.105469 127.046875 84.007813 127.042969 83.910156 127.035156 L 83.910156 130.777344 C 83.910156 131.585938 83.996094 132.085938 84.175781 132.28125 C 84.414063 132.558594 84.773438 132.695313 85.25 132.695313 L 85.75 132.695313 L 85.75 133.046875 L 80.246094 133.046875 L 80.246094 132.695313 L 80.726563 132.695313 C 81.269531 132.695313 81.65625 132.519531 81.890625 132.167969 C 82.023438 131.972656 82.089844 131.507813 82.089844 130.777344 L 82.089844 122.464844 C 82.089844 121.65625 82 121.15625 81.824219 120.960938 C 81.578125 120.683594 81.214844 120.542969 80.726563 120.542969 L 80.246094 120.542969 L 80.246094 120.195313 L 84.925781 120.195313 C 86.289063 120.195313 87.292969 120.292969 87.941406 120.492188 C 88.589844 120.691406 89.136719 121.058594 89.589844 121.59375 C 90.042969 122.128906 90.265625 122.765625 90.265625 123.503906 C 90.265625 124.292969 90.007813 124.980469 89.496094 125.5625 C 88.980469 126.144531 88.183594 126.554688 87.101563 126.792969 L 89.761719 130.472656 C 90.367188 131.320313 90.886719 131.886719 91.324219 132.164063 C 91.757813 132.441406 92.324219 132.621094 93.027344 132.695313 Z M 83.910156 126.4375 C 84.027344 126.4375 84.132813 126.4375 84.21875 126.441406 C 84.304688 126.445313 84.378906 126.445313 84.433594 126.445313 C 85.644531 126.445313 86.558594 126.179688 87.171875 125.648438 C 87.789063 125.117188 88.097656 124.445313 88.097656 123.621094 C 88.097656 122.820313 87.847656 122.167969 87.351563 121.664063 C 86.855469 121.164063 86.199219 120.910156 85.378906 120.910156 C 85.019531 120.910156 84.527344 120.96875 83.910156 121.085938 L 83.910156 126.4375 "/>
<path style=" stroke:none;fill-rule:nonzero;fill:rgb(82.398987%,67.498779%,16.899109%);fill-opacity:1;" d="M 102.730469 119.90625 L 103.019531 124.265625 L 102.730469 124.265625 C 102.339844 122.957031 101.78125 122.019531 101.058594 121.445313 C 100.335938 120.871094 99.46875 120.582031 98.457031 120.582031 C 97.609375 120.582031 96.839844 120.796875 96.15625 121.230469 C 95.472656 121.664063 94.933594 122.355469 94.539063 123.300781 C 94.144531 124.25 93.949219 125.425781 93.949219 126.835938 C 93.949219 128 94.136719 129.007813 94.503906 129.859375 C 94.875 130.710938 95.433594 131.367188 96.179688 131.820313 C 96.921875 132.277344 97.773438 132.503906 98.726563 132.503906 C 99.558594 132.503906 100.289063 132.324219 100.925781 131.96875 C 101.558594 131.613281 102.257813 130.90625 103.015625 129.847656 L 103.3125 130.039063 C 102.667969 131.179688 101.921875 132.015625 101.0625 132.542969 C 100.207031 133.070313 99.191406 133.335938 98.011719 133.335938 C 95.890625 133.335938 94.246094 132.546875 93.082031 130.96875 C 92.214844 129.792969 91.777344 128.410156 91.777344 126.820313 C 91.777344 125.535156 92.066406 124.359375 92.636719 123.285156 C 93.210938 122.210938 93.996094 121.378906 95 120.789063 C 96.003906 120.199219 97.097656 119.90625 98.285156 119.90625 C 99.210938 119.90625 100.121094 120.132813 101.023438 120.585938 C 101.285156 120.726563 101.476563 120.796875 101.589844 120.796875 C 101.757813 120.796875 101.90625 120.734375 102.03125 120.617188 C 102.195313 120.445313 102.3125 120.207031 102.378906 119.90625 L 102.730469 119.90625 "/>
<path style=" stroke:none;fill-rule:nonzero;fill:rgb(82.398987%,67.498779%,16.899109%);fill-opacity:1;" d="M 95.503906 69.992188 C 98.035156 66.660156 98.640625 62.015625 97.320313 56.0625 C 110.949219 52.125 110.796875 37.363281 96.488281 32.289063 C 101.179688 20.175781 87.023438 11.089844 77.785156 18.359375 C 81.625 9.324219 94.898438 11.242188 100.429688 22.679688 C 101.214844 25.207031 102.242188 27.972656 100.195313 31.378906 C 104.539063 33.386719 108.753906 38.875 110.890625 45.605469 C 115.035156 57.878906 118.367188 70.902344 110.644531 80.140625 C 107.867188 75.917969 102.816406 72.535156 95.503906 69.992188 "/>
</g>
</svg>
