<?xml version="1.0" encoding="UTF-8"?>
<!DOCTYPE svg PUBLIC "-//W3C//DTD SVG 1.1//EN" "http://www.w3.org/Graphics/SVG/1.1/DTD/svg11.dtd">
<!-- Creator: CorelDRAW 2018 (64-Bit) -->
<svg xmlns="http://www.w3.org/2000/svg" xml:space="preserve" width="950px" height="288px" version="1.1" style="shape-rendering:geometricPrecision; text-rendering:geometricPrecision; image-rendering:optimizeQuality; fill-rule:evenodd; clip-rule:evenodd"
viewBox="0 0 626.7 189.62"
 xmlns:xlink="http://www.w3.org/1999/xlink">
 <defs>
  <style type="text/css">
   <![CDATA[
    .fil0 {fill:#D8B339}
    .fil2 {fill:#606062;fill-rule:nonzero}
    .fil1 {fill:#4B4B4D;fill-rule:nonzero}
   ]]>
  </style>
 </defs>
 <g id="Layer_x0020_1">
  <metadata id="CorelCorpID_0Corel-Layer"/>
  <g id="_1782330262160">
   <path class="fil0" d="M45.49 159.24l35.19 0c-0.29,-0.69 -0.82,-1.23 -1.21,-2.07 -2.54,-5.52 -2.12,-14.74 -0.36,-20.01 1.1,-3.31 2.29,-6.51 3.12,-10.04 0.43,-1.84 0.72,-3.71 0.95,-5.67 0.16,-1.36 0.23,-5.32 0.55,-6.14 0.61,18.34 6.63,19.92 5.82,33.41 -0.15,2.6 -0.6,5.97 -1.63,8.32 -0.4,0.9 -0.97,1.48 -1.27,2.19l35.19 0.01c0.68,-2.82 4.12,-8.25 5.58,-10.19 3.18,-4.25 4.83,-4.53 8.55,-7.41 5.63,-4.36 11.54,-10.52 15.85,-16.07 9.31,-11.98 17.62,-26.92 15.03,-47.7 -2.29,-18.39 -11.17,-32.66 -19.61,-44.04 -2.27,-3.06 -4.35,-5.88 -6.4,-9.56 -1.9,-3.41 -3.66,-6.73 -5.46,-10.49 -0.74,-1.53 -1.44,-4.49 -2.2,-5.69 -2.72,-4.3 -5.38,2.87 -0.66,15.68 2.81,7.62 7.07,14.15 10.48,21.24 7.8,16.2 13.73,33.32 7.43,51.39 -2.45,7 -5.76,12.14 -10.19,17.6 -1.78,2.19 -3.89,4.13 -5.9,6.11l-4.17 3.71c-3.6,2.83 -5.63,4.03 -10.36,5.6 -21.65,7.2 -26.31,-11.38 -19.07,-19.25 3.19,-3.46 6.33,-3.85 11.68,-1.72 4.32,1.72 6.38,4.05 12.15,3.73 3.08,-0.16 9.44,-1.89 10.69,-5.24 -0.92,-0.88 -1.52,-1.97 -2.41,-2.78 -3.61,-3.28 -3.62,-4.1 -8.69,-7.45 -9.97,-6.58 -22.93,-7.82 -32.58,-0.77 -3.13,2.29 -5.56,5.49 -6.84,9.3 -0.46,1.36 -0.55,3.3 -1.08,4.43 -0.92,-1.99 -0.49,-8.22 -7.81,-13.65 -4.22,-3.14 -9.82,-5.01 -16.6,-4.78 -7.36,0.25 -14.08,3.53 -19.02,7.6 -2.29,1.89 -5,4.37 -6.89,6.63 -0.39,0.47 -0.87,1.09 -1.27,1.47 0.59,1.66 2.75,2.91 4.26,3.64 1.78,0.86 4.09,1.45 6.27,1.59 5.79,0.38 7.9,-1.93 12.18,-3.66 5.27,-2.15 8.49,-1.88 11.72,1.56 8.33,8.86 1.05,29.67 -24.41,17.09 -3.35,-1.65 -8.22,-6.02 -11.04,-8.87 -0.73,-0.74 -1.24,-1.39 -2.02,-2.11 -4.62,-4.23 -10.12,-14.08 -12.08,-19.64 -3.1,-8.82 -3.45,-18.64 -1.34,-28.15 1.89,-8.54 5.19,-16.05 8.65,-23.25 4.52,-9.38 13.63,-23.05 13.17,-34.46 -0.09,-2.39 -1.19,-5.46 -3.13,-2.81 -0.77,1.04 -1.59,4.28 -2.29,5.79 -3.59,7.71 -6.96,13.48 -11.84,20.06 -8.47,11.41 -17.39,25.69 -19.7,44.15 -2.56,20.55 5.71,35.82 14.96,47.6 3.87,4.93 7.79,9.12 12.47,13.25 1.9,1.67 3.52,3.05 5.62,4.51 2.88,2 3.87,2.46 6.31,5.71 1.51,2.01 4.96,7.43 5.66,10.3z"/>
   <path class="fil0" d="M47.87 27.57c-1.45,0.73 -4.79,0.63 -9.34,4.23 -3.87,3.07 -6.75,7.2 -7.78,12.52 -0.3,1.54 -0.06,2.45 -0.69,3.41 -0.21,0.32 -0.15,0.17 -0.37,0.57 -1.09,1.94 -3.88,8.37 -4.66,10.56 -4.07,11.51 -4.92,22.95 -1.42,34.95 0.67,2.26 2.98,8.2 4.11,9.49l0.63 -0.76c0.19,-0.3 0.31,-0.5 0.52,-0.79 0.46,-0.65 0.78,-1.1 1.2,-1.62l2.54 -2.9c1.77,-1.91 3.51,-3.5 5.95,-5.13 2.21,-1.48 4.42,-2.71 7.25,-3.83 3.03,-1.19 7.99,-2.24 8.57,-2.5 -0.5,-0.87 -1.49,-1.37 -2.83,-3.56 -3.22,-5.25 -3,-10.67 -1.79,-16.28 -4.2,0.26 -7.15,-0.83 -10.22,-3.25 -2.54,-2 -4.46,-4.47 -6.03,-7.47 -1,-1.9 -1.4,-5.4 -1.24,-7.92 0.46,-7.59 4.88,-13.07 10.88,-16.12 2.59,-1.32 4.23,-1.44 7.35,-1.85 -0.02,-0.96 -3.59,-6.68 -0.53,-14.98 4.36,-11.85 19.13,-16.24 29.28,-8.83 3.66,2.67 2.72,2.76 4.55,4.57 7.53,-11.77 27.77,-11.04 33.65,3.98 0.89,2.29 1.4,4.97 1.31,7.7 -0.13,3.49 -0.93,4.79 -1.8,7.58 10.02,0.67 17.68,8.07 18.29,17.94 0.38,6.09 -2.48,10.75 -5.59,13.71 -1.49,1.42 -2.34,2.29 -4.48,3.41 -2.45,1.26 -4.49,1.72 -7.62,1.53 0.93,4.2 1.36,7.27 0.16,11.66 -1.57,5.73 -4.03,6.89 -4.77,8.18 2.47,1.1 7.73,0.91 15.71,6.25 3.84,2.58 7.07,5.93 9.72,9.62 0.46,0.64 0.72,1.21 1.23,1.66 1.14,-1.31 3.38,-7.1 4.06,-9.34 3.54,-11.63 2.69,-23.86 -1.32,-34.96 -1.01,-2.77 -5.16,-11.67 -5.18,-11.76 -0.2,-0.84 -0.23,-2 -0.42,-2.94 -1.34,-6.75 -6.07,-12.51 -11.96,-15.05 -2.06,-0.88 -4.66,-1.44 -5.14,-1.68 0.62,-3 1.18,-4.68 0.94,-8.06 -0.52,-7.39 -4.48,-13.04 -10.46,-16.72 -6.04,-3.71 -14.89,-3.78 -21.25,0.15 -1.77,1.09 -4.06,2.8 -4.95,4.22 -1.52,-0.63 -3.64,-4.96 -11.46,-6.68 -5.24,-1.15 -11.02,-0.17 -14.97,2.24 -6.01,3.67 -9.98,9.24 -10.56,16.62 -0.27,3.46 0.29,5.17 0.93,8.23z"/>
   <path class="fil0" d="M54.72 43.72c-1.18,-1.15 -5.38,-0.71 -5.92,3.05 -0.4,2.82 1.61,6.9 -0.15,9.05 -1.63,1.98 -5.95,1.79 -7.52,0.02 -1.4,-1.59 -2.74,-4.51 -2.88,-7.43 -0.45,-9.54 9.1,-15.41 16.97,-12.29 1,0.39 2.61,1.26 3.2,1.86 0.97,0.97 0.68,2.69 2.97,1.69 0.45,-1.74 -0.23,-2.46 -2.45,-3.9 -12.83,-8.35 -27.3,5.14 -21.5,17.94 1.44,3.18 3.59,5.35 6.42,6.9 2.62,1.43 7.99,2.59 11.11,0.97 3.08,-1.59 4.05,-5.58 2.15,-9.34 -0.9,-1.76 -1.58,-2.72 -2.63,-4.13 -2.34,-3.15 -0.08,-3.27 0.23,-4.39z"/>
   <path class="fil0" d="M104.85 16.31c-1.07,-1.15 -5.36,-0.8 -5.92,3.05 -0.42,2.88 1.58,6.81 -0.17,9.04 -1.57,2.01 -5.96,1.79 -7.49,0.01 -1.44,-1.66 -2.74,-4.42 -2.89,-7.4 -0.47,-9.35 8.76,-15.46 16.97,-12.31 0.94,0.36 2.67,1.31 3.21,1.86 0.97,0.99 0.66,2.66 2.94,1.69 0.51,-1.86 -0.22,-2.35 -2.43,-3.89 -1.29,-0.9 -2.84,-1.64 -4.64,-2.11 -3.9,-1 -8.16,-0.12 -11.03,1.59 -9.1,5.41 -10.03,19.58 0.6,25.35 2.72,1.47 7.94,2.55 11.12,1 1.24,-0.61 2.49,-2.18 2.92,-3.84 1.45,-5.6 -4.53,-9.59 -4.43,-11.97 0.06,-1.45 0.9,-0.99 1.24,-2.07z"/>
   <path class="fil0" d="M119.67 42.59c-1.16,-1.14 -5.37,-0.72 -5.91,3.06 -0.4,2.82 1.61,6.9 -0.16,9.05 -1.63,1.97 -5.94,1.78 -7.51,0.01 -5.16,-5.83 -3.4,-16.67 5.36,-19.82 3.87,-1.4 9.46,-0.52 11.93,1.96 0.97,0.97 0.67,2.69 2.96,1.7 0.3,-1.16 0.26,-1.75 -0.56,-2.41 -2.01,-1.63 -3.55,-2.86 -6.53,-3.61 -11.92,-2.96 -21.79,9.16 -16.86,20.05 1.44,3.18 3.59,5.36 6.43,6.91 2.62,1.43 7.98,2.59 11.11,0.97 3.07,-1.6 4.05,-5.58 2.14,-9.34 -1.46,-2.89 -3.7,-4.99 -3.63,-6.45 0.05,-1.43 0.93,-0.97 1.23,-2.08z"/>
   <path class="fil0" d="M87.57 42.21c-1.16,-1.14 -5.38,-0.72 -5.91,3.06 -0.4,2.82 1.6,6.9 -0.16,9.05 -1.63,1.98 -5.95,1.78 -7.51,0.01 -5.16,-5.82 -3.41,-16.67 5.35,-19.82 2.69,-0.96 6.09,-0.94 8.73,0.11 1,0.39 2.61,1.26 3.21,1.86 0.97,0.97 0.67,2.68 2.96,1.69 0.3,-1.16 0.26,-1.74 -0.56,-2.41 -0.64,-0.51 -1.15,-1.01 -1.88,-1.49 -4.98,-3.25 -10.72,-3.42 -15.65,-0.51 -9.55,5.63 -9.62,19.79 0.57,25.35 2.62,1.43 7.98,2.59 11.1,0.97 3.08,-1.6 4.06,-5.58 2.15,-9.34 -0.9,-1.76 -1.58,-2.73 -2.62,-4.13 -2.35,-3.16 -0.08,-3.27 0.22,-4.4z"/>
   <path class="fil0" d="M71.62 16.31c-1.07,-1.15 -5.36,-0.8 -5.92,3.05 -0.42,2.88 1.58,6.81 -0.16,9.04 -1.57,2.01 -5.96,1.79 -7.5,0.01 -5.34,-6.17 -3.17,-16.79 5.34,-19.81 2.85,-1.01 5.94,-0.97 8.74,0.1 5.61,2.16 3.07,4.86 6.15,3.55 0.51,-1.86 -0.21,-2.35 -2.43,-3.89 -4.68,-3.26 -11.02,-3.29 -15.67,-0.52 -4.91,2.92 -9.48,10.42 -5.83,18.45 1.44,3.17 3.6,5.36 6.44,6.9 2.71,1.47 7.93,2.55 11.11,1 1.24,-0.61 2.49,-2.18 2.92,-3.84 0.58,-2.26 0.12,-3.73 -0.79,-5.52 -1.47,-2.9 -3.7,-5 -3.64,-6.45 0.06,-1.45 0.9,-0.99 1.24,-2.07z"/>
   <path class="fil0" d="M71.61 68.31c-1.14,-1.02 -3.49,-0.41 -4.35,0.3 -4.28,3.52 2.13,11.41 -3.63,13.06 -6.91,1.98 -10.18,-7.81 -7.54,-14.09 2.02,-4.81 7.9,-9.49 15.32,-7.11 1.23,0.4 3.12,1.37 3.82,2 0.69,0.63 0.46,1.26 1.2,1.81 1.45,1.07 3.22,-0.88 1.06,-2.57 -1.99,-1.56 -2.64,-2.35 -5.73,-3.27 -13.57,-4.06 -24.82,11.92 -14.92,23.74 1.39,1.65 4.34,3.68 7.45,4.37 8.07,1.82 13.49,-2.57 9.2,-10.69 -0.75,-1.44 -1.55,-2.38 -2.43,-3.59 -1.84,-2.54 0.3,-2.85 0.55,-3.96z"/>
   <path class="fil0" d="M103.34 68.5c-1.35,-1.21 -6.33,-0.7 -5.94,4.68 0.26,3.54 1.77,7.59 -2.05,8.68 -6.91,1.98 -10.17,-7.84 -7.54,-14.09 2.03,-4.82 7.9,-9.49 15.32,-7.11 1.24,0.39 3.13,1.36 3.83,2 0.69,0.63 0.46,1.26 1.2,1.81 1.45,1.07 3.22,-0.88 1.06,-2.57 -2,-1.56 -2.65,-2.35 -5.73,-3.27 -7.47,-2.24 -13.72,1.86 -16.35,6.02 -5.63,8.9 -0.47,19.99 8.87,22.09 8.08,1.81 13.5,-2.57 9.21,-10.7 -0.76,-1.43 -1.56,-2.37 -2.43,-3.58 -1.84,-2.54 0.29,-2.85 0.55,-3.96z"/>
   <path class="fil0" d="M129.48 116.34c-3.4,0.57 -5.13,1.18 -8.96,0.7 -5.54,-0.71 -11.96,-5.35 -15.45,-2.55 -6.15,4.95 4.8,18.23 19.56,6.98 1.32,-1 4.1,-3.64 4.85,-5.13z"/>
   <path class="fil0" d="M37.84 116.34c1.55,3.03 7.18,7.29 10.96,8.61 5.77,2.02 11.78,0.51 14.16,-3.57 2.63,-4.5 0.45,-9.94 -8.54,-6.66 -2.58,0.94 -4.34,1.87 -7.45,2.3 -3.89,0.53 -5.67,-0.1 -9.13,-0.68z"/>
   <path class="fil0" d="M91.92 172.31c1.81,0.06 2.16,0.36 2.16,2.25l0 11.83c0,3.43 -1.85,1.52 -2.16,2.82l6.48 0c-0.47,-1.4 -2.16,0.81 -2.16,-3.19l0 -4.89c2.1,0 1.54,-0.09 4.01,3.88 0.74,1.19 2.06,3.05 2.56,4.19l4.18 0.01c-0.25,-1.21 -0.81,-0.08 -2.3,-1.5 -0.62,-0.59 -1.16,-1.33 -1.63,-2.12 -0.84,-1.4 -2.4,-3.48 -2.96,-4.9 4.87,-1.03 4.85,-7.92 -0.13,-8.71 -2.16,-0.35 -5.74,-0.14 -8.05,-0.14l0 0.47zm4.37 0.8l-0.05 7.18c6.39,-0.01 5.38,-5.3 3.56,-6.84 -0.97,-0.82 -2.21,-0.62 -3.51,-0.34z"/>
   <path class="fil0" d="M75.14 89.29l0.23 0.22c1.32,1.11 3.74,1.98 6.5,4.81 0.3,0.31 0.65,0.57 0.94,0.93 0.27,0.33 0.53,0.84 0.85,1.23 0.74,-0.89 1.31,-1.9 2.62,-3.02 2.06,-1.75 4.89,-3.29 5.57,-3.85 0.24,-0.19 0.16,-0.13 0.34,-0.32 -2.86,-0.59 -6.28,-2.99 -7.75,-5.42 -0.27,-0.45 -0.48,-0.95 -0.78,-1.34 -1.14,1.49 -0.92,2.19 -3.37,4.18 -1.2,0.98 -3.27,2.19 -5.15,2.58z"/>
   <path class="fil0" d="M58.93 189.02c0.5,0.33 4.29,0.33 4.79,0 -0.35,-0.77 -0.85,-0.04 -1.55,-0.85 -0.55,-1.28 0.85,-3.5 1.18,-4.78l5.84 0c0.42,1.54 1.54,3.41 1.16,4.94 -1.59,0.73 -1.18,-0.09 -1.38,0.88 1.28,0 5.21,0.34 6.01,-0.19 -0.28,-0.62 -1,-0.2 -1.79,-1.35 -0.39,-0.57 -0.68,-1.49 -0.95,-2.24l-4.6 -12.87c-0.23,-0.68 -0.09,-0.75 -0.68,-1.09 -1.01,0.74 -5,13.76 -6.36,16.07 -0.68,1.16 -1.39,0.85 -1.67,1.48zm4.89 -6.63l4.87 0.01c-0.16,-1.51 -1.76,-5.08 -2.26,-6.78 -0.11,0.12 -0.14,0.14 -0.27,0.37 -0.17,0.31 -0.03,0 -0.19,0.41 -0.1,0.25 -0.19,0.56 -0.28,0.84l-1.87 5.15z"/>
   <path class="fil0" d="M75.31 189.21l4.79 0c-0.15,-0.89 0.19,-0.31 -0.7,-0.62 -0.78,-0.28 -0.39,0.11 -0.85,-0.48 -0.48,-0.97 0.83,-3.65 1.2,-4.7l5.83 -0.02c0.3,1.18 1.56,3.63 1.17,4.75 -0.94,1.02 -1.21,-0.05 -1.4,1.07l6.01 0c-0.18,-1.09 -0.95,-0.2 -1.74,-1.46 -1.12,-1.81 -5.36,-15.48 -6.14,-16.28 -0.75,0.26 -1.66,3.42 -1.98,4.31 -0.63,1.74 -4.05,11.88 -5.24,12.59 -0.9,0.53 -0.75,-0.13 -0.95,0.84zm4.86 -6.84l4.95 0.03 -2.32 -6.71 -2.63 6.68z"/>
   <path class="fil0" d="M47.81 183.66l-0.1 5.83c0.79,0.08 0.38,-0.06 0.79,-0.83 1.91,0.06 2.57,1.11 4.94,0.91 1.73,-0.16 2.88,-1.19 3.52,-2.29 0.78,-1.33 0.82,-3.27 0.12,-4.71 -0.65,-1.35 -1.7,-2.03 -3.09,-2.92 -1.74,-1.09 -6.83,-3.63 -3.65,-6.49 1.24,-1.12 3.11,-0.59 4.14,0.36 0.49,0.44 0.96,1 1.22,1.78 0.68,2.02 -0.05,1.88 0.93,2.13l0 -5.96c-0.88,0.23 -0.32,0.19 -0.94,0.88 -0.86,0.03 -6.08,-2.93 -7.85,2.06 -1.97,5.52 5.55,7.08 7.2,9.63 0.99,1.53 0.41,3.37 -0.78,4.11 -1.81,1.12 -4.68,0.05 -5.58,-2.44 -0.66,-1.81 -0.05,-1.85 -0.87,-2.05z"/>
   <path class="fil0" d="M120.84 184.9c-0.79,0.55 -2.58,5.07 -7.23,3.09 -2.68,-1.14 -3.59,-4.25 -3.47,-7.99 0.31,-9.39 7.57,-9.1 9.54,-4.67 0.27,0.61 0.41,1.73 0.97,2.07 0.2,-0.43 -0.04,-4.71 -0.21,-5.45 -0.1,-0.44 -0.06,-0.28 -0.17,-0.48 -0.8,0.51 -0.43,1.6 -1.79,0.97 -2.55,-1.19 -4.49,-1.68 -7.45,0.4 -5.24,3.68 -4.58,15.03 2.09,16.58 5.37,1.24 8.19,-3.74 7.72,-4.52z"/>
  </g>
  <g id="_1747921241088">
   <path class="fil1" d="M219.8 104.98l0 6.11 -0.48 0c-0.15,-1.18 -0.43,-2.11 -0.84,-2.81 -0.4,-0.69 -0.98,-1.24 -1.73,-1.65 -0.75,-0.41 -1.52,-0.61 -2.32,-0.61 -0.91,0 -1.66,0.27 -2.25,0.82 -0.59,0.56 -0.89,1.19 -0.89,1.89 0,0.54 0.19,1.03 0.56,1.48 0.54,0.65 1.82,1.52 3.85,2.6 1.66,0.89 2.79,1.57 3.39,2.04 0.61,0.48 1.07,1.03 1.4,1.68 0.32,0.64 0.49,1.32 0.49,2.02 0,1.34 -0.52,2.49 -1.56,3.46 -1.04,0.97 -2.38,1.46 -4.01,1.46 -0.52,0 -1,-0.04 -1.45,-0.12 -0.27,-0.05 -0.83,-0.21 -1.68,-0.48 -0.84,-0.28 -1.38,-0.42 -1.61,-0.42 -0.21,0 -0.39,0.07 -0.51,0.2 -0.13,0.13 -0.22,0.4 -0.28,0.82l-0.48 0 0 -6.06 0.48 0c0.22,1.27 0.53,2.22 0.91,2.85 0.38,0.63 0.97,1.15 1.76,1.57 0.78,0.41 1.65,0.62 2.58,0.62 1.09,0 1.95,-0.29 2.58,-0.86 0.63,-0.58 0.95,-1.26 0.95,-2.04 0,-0.44 -0.12,-0.88 -0.36,-1.32 -0.24,-0.45 -0.61,-0.86 -1.11,-1.25 -0.34,-0.26 -1.27,-0.81 -2.79,-1.66 -1.51,-0.84 -2.59,-1.51 -3.23,-2.01 -0.64,-0.51 -1.13,-1.07 -1.46,-1.67 -0.34,-0.61 -0.5,-1.28 -0.5,-2.01 0,-1.27 0.49,-2.36 1.46,-3.28 0.98,-0.92 2.22,-1.37 3.73,-1.37 0.94,0 1.93,0.23 2.99,0.69 0.49,0.21 0.83,0.32 1.03,0.32 0.23,0 0.41,-0.07 0.56,-0.2 0.14,-0.14 0.25,-0.4 0.34,-0.81l0.48 0z"/>
   <path id="1" class="fil1" d="M235.29 104.98c2.29,0 4.28,0.87 5.95,2.61 1.68,1.74 2.52,3.92 2.52,6.53 0,2.68 -0.84,4.91 -2.54,6.69 -1.68,1.77 -3.73,2.66 -6.14,2.66 -2.43,0 -4.47,-0.87 -6.12,-2.6 -1.66,-1.73 -2.49,-3.97 -2.49,-6.72 0,-2.8 0.96,-5.09 2.87,-6.87 1.66,-1.53 3.64,-2.3 5.95,-2.3zm-0.25 0.93c-1.58,0 -2.84,0.59 -3.79,1.76 -1.19,1.46 -1.79,3.6 -1.79,6.42 0,2.89 0.62,5.11 1.85,6.67 0.95,1.18 2.19,1.77 3.74,1.77 1.66,0 3.03,-0.65 4.11,-1.94 1.08,-1.3 1.62,-3.34 1.62,-6.13 0,-3.03 -0.6,-5.29 -1.79,-6.78 -0.95,-1.18 -2.27,-1.77 -3.95,-1.77z"/>
   <path id="2" class="fil1" d="M260.71 105.86l0 -0.48 6.22 0 0 0.48 -0.67 0c-0.69,0 -1.22,0.29 -1.6,0.87 -0.18,0.27 -0.27,0.89 -0.27,1.87l0 7.17c0,1.78 -0.17,3.15 -0.52,4.13 -0.36,0.98 -1.05,1.82 -2.08,2.52 -1.02,0.7 -2.42,1.05 -4.19,1.05 -1.93,0 -3.39,-0.34 -4.38,-1.01 -1.01,-0.67 -1.71,-1.57 -2.13,-2.7 -0.28,-0.77 -0.41,-2.22 -0.41,-4.35l0 -6.91c0,-1.09 -0.16,-1.8 -0.45,-2.14 -0.3,-0.33 -0.79,-0.5 -1.45,-0.5l-0.67 0 0 -0.48 7.64 0 0 0.48 -0.68 0c-0.73,0 -1.25,0.23 -1.56,0.69 -0.22,0.31 -0.33,0.96 -0.33,1.95l0 7.7c0,0.69 0.07,1.48 0.19,2.37 0.13,0.88 0.36,1.57 0.69,2.07 0.33,0.49 0.81,0.9 1.42,1.23 0.63,0.32 1.39,0.48 2.29,0.48 1.16,0 2.19,-0.26 3.1,-0.76 0.91,-0.5 1.54,-1.15 1.87,-1.93 0.33,-0.79 0.5,-2.13 0.5,-4l0 -7.16c0,-1.1 -0.12,-1.79 -0.36,-2.07 -0.34,-0.38 -0.84,-0.57 -1.51,-0.57l-0.66 0z"/>
   <path id="3" class="fil1" d="M285.82 105.38l0.18 4.15 -0.49 0c-0.1,-0.72 -0.23,-1.25 -0.39,-1.56 -0.27,-0.5 -0.63,-0.88 -1.08,-1.11 -0.45,-0.24 -1.03,-0.36 -1.76,-0.36l-2.49 0 0 13.5c0,1.09 0.11,1.77 0.35,2.04 0.33,0.36 0.83,0.55 1.52,0.55l0.61 0 0 0.48 -7.53 0 0 -0.48 0.64 0c0.76,0 1.29,-0.23 1.61,-0.68 0.19,-0.28 0.29,-0.92 0.29,-1.91l0 -13.5 -2.12 0c-0.83,0 -1.42,0.06 -1.76,0.18 -0.46,0.16 -0.84,0.48 -1.16,0.95 -0.32,0.47 -0.52,1.1 -0.58,1.9l-0.49 0 0.19 -4.15 14.46 0z"/>
   <path id="4" class="fil1" d="M295.31 113.59l8.19 0 0 -5.09c0,-0.9 -0.06,-1.49 -0.17,-1.78 -0.09,-0.21 -0.27,-0.4 -0.55,-0.55 -0.37,-0.21 -0.77,-0.31 -1.19,-0.31l-0.63 0 0 -0.48 7.58 0 0 0.48 -0.62 0c-0.42,0 -0.82,0.09 -1.19,0.29 -0.28,0.14 -0.47,0.35 -0.57,0.63 -0.1,0.28 -0.15,0.86 -0.15,1.72l0 11.44c0,0.9 0.06,1.49 0.17,1.77 0.09,0.22 0.26,0.41 0.53,0.56 0.39,0.21 0.79,0.32 1.21,0.32l0.62 0 0 0.48 -7.58 0 0 -0.48 0.63 0c0.73,0 1.25,-0.22 1.58,-0.64 0.22,-0.28 0.33,-0.95 0.33,-2.01l0 -5.39 -8.19 0 0 5.39c0,0.9 0.06,1.49 0.17,1.77 0.08,0.22 0.26,0.41 0.54,0.56 0.38,0.21 0.77,0.32 1.19,0.32l0.63 0 0 0.48 -7.57 0 0 -0.48 0.62 0c0.74,0 1.27,-0.22 1.6,-0.64 0.21,-0.28 0.31,-0.95 0.31,-2.01l0 -11.44c0,-0.9 -0.06,-1.49 -0.17,-1.78 -0.09,-0.21 -0.27,-0.4 -0.54,-0.55 -0.38,-0.21 -0.78,-0.31 -1.2,-0.31l-0.62 0 0 -0.48 7.57 0 0 0.48 -0.63 0c-0.42,0 -0.81,0.09 -1.19,0.29 -0.27,0.14 -0.45,0.35 -0.56,0.63 -0.1,0.28 -0.15,0.86 -0.15,1.72l0 5.09z"/>
   <path id="5" class="fil1" d="M329.65 117.17l-6.85 0 -1.19 2.77c-0.29,0.68 -0.44,1.2 -0.44,1.54 0,0.27 0.13,0.51 0.39,0.71 0.25,0.2 0.81,0.33 1.65,0.4l0 0.48 -5.57 0 0 -0.48c0.74,-0.13 1.21,-0.3 1.43,-0.51 0.44,-0.42 0.93,-1.27 1.47,-2.54l6.22 -14.56 0.44 0 6.15 14.71c0.5,1.18 0.95,1.95 1.35,2.3 0.41,0.36 0.97,0.55 1.69,0.6l0 0.48 -6.97 0 0 -0.48c0.7,-0.04 1.18,-0.16 1.43,-0.36 0.24,-0.2 0.36,-0.44 0.36,-0.73 0,-0.38 -0.17,-0.99 -0.52,-1.81l-1.04 -2.52zm-0.4 -0.96l-2.98 -7.14 -3.06 7.14 6.04 0z"/>
   <path id="6" class="fil1" d="M352.08 104.98l0 6.11 -0.47 0c-0.16,-1.18 -0.44,-2.11 -0.85,-2.81 -0.4,-0.69 -0.98,-1.24 -1.73,-1.65 -0.75,-0.41 -1.52,-0.61 -2.32,-0.61 -0.91,0 -1.66,0.27 -2.25,0.82 -0.59,0.56 -0.89,1.19 -0.89,1.89 0,0.54 0.19,1.03 0.56,1.48 0.55,0.65 1.83,1.52 3.86,2.6 1.65,0.89 2.78,1.57 3.38,2.04 0.61,0.48 1.08,1.03 1.4,1.68 0.32,0.64 0.49,1.32 0.49,2.02 0,1.34 -0.52,2.49 -1.56,3.46 -1.04,0.97 -2.38,1.46 -4.01,1.46 -0.51,0 -0.99,-0.04 -1.45,-0.12 -0.27,-0.05 -0.83,-0.21 -1.68,-0.48 -0.84,-0.28 -1.38,-0.42 -1.6,-0.42 -0.22,0 -0.4,0.07 -0.52,0.2 -0.12,0.13 -0.22,0.4 -0.28,0.82l-0.48 0 0 -6.06 0.48 0c0.23,1.27 0.53,2.22 0.91,2.85 0.38,0.63 0.97,1.15 1.76,1.57 0.78,0.41 1.65,0.62 2.59,0.62 1.08,0 1.94,-0.29 2.57,-0.86 0.63,-0.58 0.95,-1.26 0.95,-2.04 0,-0.44 -0.12,-0.88 -0.36,-1.32 -0.24,-0.45 -0.61,-0.86 -1.11,-1.25 -0.34,-0.26 -1.27,-0.81 -2.78,-1.66 -1.52,-0.84 -2.6,-1.51 -3.24,-2.01 -0.64,-0.51 -1.13,-1.07 -1.46,-1.67 -0.33,-0.61 -0.5,-1.28 -0.5,-2.01 0,-1.27 0.49,-2.36 1.47,-3.28 0.97,-0.92 2.21,-1.37 3.72,-1.37 0.94,0 1.94,0.23 2.99,0.69 0.49,0.21 0.83,0.32 1.03,0.32 0.23,0 0.42,-0.07 0.56,-0.2 0.14,-0.14 0.26,-0.4 0.35,-0.81l0.47 0z"/>
   <path id="7" class="fil1" d="M366.07 122.59l0 0.48 -7.58 0 0 -0.48 0.63 0c0.73,0 1.26,-0.22 1.59,-0.64 0.21,-0.28 0.31,-0.95 0.31,-2.01l0 -11.44c0,-0.9 -0.05,-1.49 -0.16,-1.77 -0.09,-0.22 -0.27,-0.41 -0.54,-0.56 -0.38,-0.21 -0.79,-0.31 -1.2,-0.31l-0.63 0 0 -0.48 7.58 0 0 0.48 -0.64 0c-0.72,0 -1.24,0.21 -1.57,0.63 -0.22,0.28 -0.33,0.95 -0.33,2.01l0 11.44c0,0.9 0.06,1.49 0.17,1.77 0.09,0.22 0.27,0.41 0.55,0.56 0.37,0.21 0.76,0.32 1.18,0.32l0.64 0z"/>
   <path id="8" class="fil1" d="M382.08 117.17l-6.86 0 -1.18 2.77c-0.29,0.68 -0.44,1.2 -0.44,1.54 0,0.27 0.13,0.51 0.38,0.71 0.26,0.2 0.81,0.33 1.66,0.4l0 0.48 -5.57 0 0 -0.48c0.73,-0.13 1.21,-0.3 1.43,-0.51 0.44,-0.42 0.93,-1.27 1.47,-2.54l6.22 -14.56 0.44 0 6.15 14.71c0.5,1.18 0.94,1.95 1.35,2.3 0.4,0.36 0.96,0.55 1.69,0.6l0 0.48 -6.97 0 0 -0.48c0.7,-0.04 1.18,-0.16 1.42,-0.36 0.25,-0.2 0.37,-0.44 0.37,-0.73 0,-0.38 -0.17,-0.99 -0.52,-1.81l-1.04 -2.52zm-0.4 -0.96l-2.98 -7.14 -3.06 7.14 6.04 0z"/>
   <path id="9" class="fil1" d="M391.91 105.38l4.75 0 10.84 13.28 0 -10.22c0,-1.08 -0.12,-1.77 -0.37,-2.04 -0.32,-0.36 -0.84,-0.54 -1.54,-0.54l-0.62 0 0 -0.48 6.21 0 0 0.48 -0.63 0c-0.76,0 -1.29,0.22 -1.61,0.68 -0.19,0.28 -0.29,0.91 -0.29,1.9l0 14.91 -0.47 0 -11.64 -14.25 0 10.9c0,1.09 0.12,1.77 0.35,2.04 0.33,0.36 0.85,0.55 1.55,0.55l0.63 0 0 0.48 -6.22 0 0 -0.48 0.63 0c0.76,0 1.3,-0.23 1.62,-0.68 0.19,-0.28 0.29,-0.92 0.29,-1.91l0 -12.3c-0.51,-0.6 -0.9,-1 -1.17,-1.19 -0.26,-0.19 -0.65,-0.37 -1.16,-0.54 -0.26,-0.07 -0.64,-0.11 -1.15,-0.11l0 -0.48z"/>
   <path id="10" class="fil1" d="M432.1 117.17l-6.85 0 -1.18 2.77c-0.3,0.68 -0.45,1.2 -0.45,1.54 0,0.27 0.13,0.51 0.39,0.71 0.25,0.2 0.81,0.33 1.66,0.4l0 0.48 -5.58 0 0 -0.48c0.74,-0.13 1.22,-0.3 1.43,-0.51 0.45,-0.42 0.94,-1.27 1.48,-2.54l6.22 -14.56 0.44 0 6.15 14.71c0.49,1.18 0.94,1.95 1.35,2.3 0.4,0.36 0.96,0.55 1.69,0.6l0 0.48 -6.98 0 0 -0.48c0.71,-0.04 1.18,-0.16 1.43,-0.36 0.25,-0.2 0.37,-0.44 0.37,-0.73 0,-0.38 -0.17,-0.99 -0.52,-1.81l-1.05 -2.52zm-0.4 -0.96l-2.98 -7.14 -3.06 7.14 6.04 0z"/>
   <path id="11" class="fil1" d="M454.54 104.98l0 6.11 -0.48 0c-0.16,-1.18 -0.44,-2.11 -0.84,-2.81 -0.41,-0.69 -0.98,-1.24 -1.74,-1.65 -0.74,-0.41 -1.52,-0.61 -2.32,-0.61 -0.9,0 -1.65,0.27 -2.24,0.82 -0.59,0.56 -0.89,1.19 -0.89,1.89 0,0.54 0.19,1.03 0.56,1.48 0.54,0.65 1.82,1.52 3.85,2.6 1.65,0.89 2.78,1.57 3.39,2.04 0.6,0.48 1.07,1.03 1.39,1.68 0.33,0.64 0.49,1.32 0.49,2.02 0,1.34 -0.52,2.49 -1.55,3.46 -1.04,0.97 -2.38,1.46 -4.01,1.46 -0.52,0 -1,-0.04 -1.45,-0.12 -0.27,-0.05 -0.83,-0.21 -1.68,-0.48 -0.84,-0.28 -1.38,-0.42 -1.61,-0.42 -0.22,0 -0.39,0.07 -0.52,0.2 -0.12,0.13 -0.21,0.4 -0.28,0.82l-0.48 0 0 -6.06 0.48 0c0.23,1.27 0.53,2.22 0.92,2.85 0.38,0.63 0.97,1.15 1.75,1.57 0.79,0.41 1.65,0.62 2.59,0.62 1.09,0 1.95,-0.29 2.58,-0.86 0.63,-0.58 0.94,-1.26 0.94,-2.04 0,-0.44 -0.12,-0.88 -0.35,-1.32 -0.24,-0.45 -0.61,-0.86 -1.12,-1.25 -0.33,-0.26 -1.26,-0.81 -2.78,-1.66 -1.51,-0.84 -2.6,-1.51 -3.24,-2.01 -0.64,-0.51 -1.13,-1.07 -1.45,-1.67 -0.34,-0.61 -0.5,-1.28 -0.5,-2.01 0,-1.27 0.49,-2.36 1.46,-3.28 0.97,-0.92 2.22,-1.37 3.72,-1.37 0.94,0 1.94,0.23 3,0.69 0.48,0.21 0.83,0.32 1.03,0.32 0.22,0 0.41,-0.07 0.55,-0.2 0.15,-0.14 0.26,-0.4 0.35,-0.81l0.48 0z"/>
   <path id="12" class="fil1" d="M472.52 104.98l0 6.11 -0.48 0c-0.15,-1.18 -0.43,-2.11 -0.84,-2.81 -0.4,-0.69 -0.98,-1.24 -1.73,-1.65 -0.75,-0.41 -1.52,-0.61 -2.32,-0.61 -0.91,0 -1.66,0.27 -2.25,0.82 -0.59,0.56 -0.89,1.19 -0.89,1.89 0,0.54 0.19,1.03 0.56,1.48 0.55,0.65 1.83,1.52 3.85,2.6 1.66,0.89 2.79,1.57 3.39,2.04 0.61,0.48 1.08,1.03 1.4,1.68 0.32,0.64 0.49,1.32 0.49,2.02 0,1.34 -0.52,2.49 -1.56,3.46 -1.04,0.97 -2.38,1.46 -4.01,1.46 -0.51,0 -1,-0.04 -1.45,-0.12 -0.27,-0.05 -0.83,-0.21 -1.68,-0.48 -0.84,-0.28 -1.38,-0.42 -1.6,-0.42 -0.22,0 -0.4,0.07 -0.52,0.2 -0.13,0.13 -0.22,0.4 -0.28,0.82l-0.48 0 0 -6.06 0.48 0c0.23,1.27 0.53,2.22 0.91,2.85 0.38,0.63 0.97,1.15 1.76,1.57 0.78,0.41 1.65,0.62 2.59,0.62 1.08,0 1.94,-0.29 2.57,-0.86 0.63,-0.58 0.95,-1.26 0.95,-2.04 0,-0.44 -0.12,-0.88 -0.36,-1.32 -0.24,-0.45 -0.61,-0.86 -1.11,-1.25 -0.34,-0.26 -1.27,-0.81 -2.78,-1.66 -1.52,-0.84 -2.6,-1.51 -3.24,-2.01 -0.64,-0.51 -1.13,-1.07 -1.46,-1.67 -0.33,-0.61 -0.5,-1.28 -0.5,-2.01 0,-1.27 0.49,-2.36 1.47,-3.28 0.97,-0.92 2.21,-1.37 3.72,-1.37 0.94,0 1.94,0.23 2.99,0.69 0.49,0.21 0.83,0.32 1.03,0.32 0.23,0 0.42,-0.07 0.56,-0.2 0.14,-0.14 0.26,-0.4 0.34,-0.81l0.48 0z"/>
   <path id="13" class="fil1" d="M488.01 104.98c2.29,0 4.28,0.87 5.95,2.61 1.69,1.74 2.53,3.92 2.53,6.53 0,2.68 -0.85,4.91 -2.54,6.69 -1.69,1.77 -3.74,2.66 -6.15,2.66 -2.43,0 -4.47,-0.87 -6.12,-2.6 -1.66,-1.73 -2.48,-3.97 -2.48,-6.72 0,-2.8 0.95,-5.09 2.86,-6.87 1.66,-1.53 3.64,-2.3 5.95,-2.3zm-0.25 0.93c-1.57,0 -2.84,0.59 -3.79,1.76 -1.19,1.46 -1.79,3.6 -1.79,6.42 0,2.89 0.62,5.11 1.85,6.67 0.95,1.18 2.19,1.77 3.74,1.77 1.66,0 3.03,-0.65 4.11,-1.94 1.08,-1.3 1.62,-3.34 1.62,-6.13 0,-3.03 -0.6,-5.29 -1.79,-6.78 -0.95,-1.18 -2.26,-1.77 -3.95,-1.77z"/>
   <path id="14" class="fil1" d="M516.74 104.98l0.4 6 -0.4 0c-0.54,-1.8 -1.3,-3.1 -2.3,-3.88 -1,-0.79 -2.19,-1.19 -3.58,-1.19 -1.17,0 -2.23,0.3 -3.17,0.89 -0.94,0.6 -1.69,1.55 -2.23,2.85 -0.54,1.31 -0.81,2.93 -0.81,4.87 0,1.6 0.26,2.99 0.77,4.16 0.51,1.18 1.28,2.07 2.3,2.7 1.03,0.63 2.2,0.94 3.51,0.94 1.14,0 2.15,-0.25 3.02,-0.73 0.88,-0.49 1.84,-1.47 2.88,-2.93l0.41 0.27c-0.89,1.57 -1.92,2.72 -3.1,3.45 -1.17,0.72 -2.58,1.09 -4.19,1.09 -2.93,0 -5.19,-1.09 -6.79,-3.26 -1.2,-1.62 -1.8,-3.53 -1.8,-5.71 0,-1.77 0.4,-3.39 1.19,-4.87 0.78,-1.48 1.87,-2.62 3.25,-3.44 1.38,-0.81 2.89,-1.21 4.52,-1.21 1.28,0 2.53,0.31 3.77,0.93 0.36,0.2 0.62,0.29 0.78,0.29 0.23,0 0.43,-0.08 0.61,-0.25 0.22,-0.23 0.38,-0.56 0.48,-0.97l0.48 0z"/>
   <path id="15" class="fil1" d="M529.86 122.59l0 0.48 -7.57 0 0 -0.48 0.62 0c0.74,0 1.27,-0.22 1.6,-0.64 0.21,-0.28 0.31,-0.95 0.31,-2.01l0 -11.44c0,-0.9 -0.06,-1.49 -0.17,-1.77 -0.09,-0.22 -0.27,-0.41 -0.54,-0.56 -0.38,-0.21 -0.78,-0.31 -1.2,-0.31l-0.62 0 0 -0.48 7.57 0 0 0.48 -0.63 0c-0.72,0 -1.25,0.21 -1.58,0.63 -0.22,0.28 -0.32,0.95 -0.32,2.01l0 11.44c0,0.9 0.06,1.49 0.17,1.77 0.08,0.22 0.26,0.41 0.54,0.56 0.38,0.21 0.77,0.32 1.19,0.32l0.63 0z"/>
   <path id="16" class="fil1" d="M545.87 117.17l-6.85 0 -1.18 2.77c-0.3,0.68 -0.45,1.2 -0.45,1.54 0,0.27 0.13,0.51 0.39,0.71 0.25,0.2 0.81,0.33 1.66,0.4l0 0.48 -5.58 0 0 -0.48c0.74,-0.13 1.22,-0.3 1.43,-0.51 0.45,-0.42 0.94,-1.27 1.48,-2.54l6.22 -14.56 0.44 0 6.15 14.71c0.49,1.18 0.94,1.95 1.35,2.3 0.4,0.36 0.96,0.55 1.68,0.6l0 0.48 -6.97 0 0 -0.48c0.7,-0.04 1.18,-0.16 1.43,-0.36 0.25,-0.2 0.37,-0.44 0.37,-0.73 0,-0.38 -0.18,-0.99 -0.52,-1.81l-1.05 -2.52zm-0.4 -0.96l-2.98 -7.14 -3.06 7.14 6.04 0z"/>
   <path id="17" class="fil1" d="M568.55 105.38l0.19 4.15 -0.49 0c-0.1,-0.72 -0.23,-1.25 -0.39,-1.56 -0.28,-0.5 -0.63,-0.88 -1.08,-1.11 -0.45,-0.24 -1.04,-0.36 -1.77,-0.36l-2.49 0 0 13.5c0,1.09 0.12,1.77 0.36,2.04 0.32,0.36 0.83,0.55 1.52,0.55l0.61 0 0 0.48 -7.53 0 0 -0.48 0.64 0c0.75,0 1.29,-0.23 1.61,-0.68 0.19,-0.28 0.29,-0.92 0.29,-1.91l0 -13.5 -2.13 0c-0.82,0 -1.41,0.06 -1.76,0.18 -0.45,0.16 -0.83,0.48 -1.16,0.95 -0.32,0.47 -0.51,1.1 -0.57,1.9l-0.49 0 0.18 -4.15 14.46 0z"/>
   <path id="18" class="fil1" d="M580.79 122.59l0 0.48 -7.57 0 0 -0.48 0.62 0c0.74,0 1.27,-0.22 1.6,-0.64 0.21,-0.28 0.31,-0.95 0.31,-2.01l0 -11.44c0,-0.9 -0.06,-1.49 -0.17,-1.77 -0.09,-0.22 -0.26,-0.41 -0.54,-0.56 -0.38,-0.21 -0.78,-0.31 -1.2,-0.31l-0.62 0 0 -0.48 7.57 0 0 0.48 -0.63 0c-0.72,0 -1.25,0.21 -1.58,0.63 -0.21,0.28 -0.32,0.95 -0.32,2.01l0 11.44c0,0.9 0.06,1.49 0.17,1.77 0.08,0.22 0.27,0.41 0.54,0.56 0.38,0.21 0.77,0.32 1.19,0.32l0.63 0z"/>
   <path id="19" class="fil1" d="M594.33 104.98c2.29,0 4.28,0.87 5.95,2.61 1.68,1.74 2.52,3.92 2.52,6.53 0,2.68 -0.84,4.91 -2.54,6.69 -1.69,1.77 -3.74,2.66 -6.14,2.66 -2.43,0 -4.47,-0.87 -6.13,-2.6 -1.65,-1.73 -2.48,-3.97 -2.48,-6.72 0,-2.8 0.96,-5.09 2.87,-6.87 1.66,-1.53 3.64,-2.3 5.95,-2.3zm-0.25 0.93c-1.58,0 -2.84,0.59 -3.8,1.76 -1.18,1.46 -1.78,3.6 -1.78,6.42 0,2.89 0.62,5.11 1.85,6.67 0.94,1.18 2.19,1.77 3.74,1.77 1.66,0 3.03,-0.65 4.11,-1.94 1.08,-1.3 1.61,-3.34 1.61,-6.13 0,-3.03 -0.59,-5.29 -1.78,-6.78 -0.95,-1.18 -2.27,-1.77 -3.95,-1.77z"/>
   <path id="20" class="fil1" d="M606.64 105.38l4.75 0 10.84 13.28 0 -10.22c0,-1.08 -0.13,-1.77 -0.37,-2.04 -0.33,-0.36 -0.84,-0.54 -1.54,-0.54l-0.63 0 0 -0.48 6.22 0 0 0.48 -0.63 0c-0.76,0 -1.3,0.22 -1.62,0.68 -0.19,0.28 -0.28,0.91 -0.28,1.9l0 14.91 -0.48 0 -11.64 -14.25 0 10.9c0,1.09 0.12,1.77 0.36,2.04 0.33,0.36 0.85,0.55 1.55,0.55l0.63 0 0 0.48 -6.22 0 0 -0.48 0.62 0c0.77,0 1.31,-0.23 1.63,-0.68 0.19,-0.28 0.29,-0.92 0.29,-1.91l0 -12.3c-0.52,-0.6 -0.91,-1 -1.17,-1.19 -0.27,-0.19 -0.65,-0.37 -1.17,-0.54 -0.25,-0.07 -0.63,-0.11 -1.14,-0.11l0 -0.48z"/>
   <path class="fil1" d="M214.25 135.93l0 6.94 3.21 0c0.74,0 1.28,-0.16 1.63,-0.48 0.34,-0.33 0.57,-0.97 0.69,-1.95l0.48 0 0 6 -0.48 0c-0.01,-0.68 -0.1,-1.19 -0.27,-1.51 -0.17,-0.32 -0.41,-0.56 -0.71,-0.72 -0.3,-0.17 -0.75,-0.25 -1.34,-0.25l-3.21 0 0 5.58c0,0.89 0.06,1.48 0.17,1.77 0.09,0.22 0.27,0.4 0.54,0.56 0.38,0.21 0.78,0.31 1.2,0.31l0.63 0 0 0.48 -7.58 0 0 -0.48 0.63 0c0.73,0 1.26,-0.21 1.59,-0.64 0.21,-0.28 0.32,-0.94 0.32,-2l0 -11.45c0,-0.89 -0.06,-1.48 -0.17,-1.77 -0.09,-0.21 -0.27,-0.4 -0.54,-0.56 -0.38,-0.21 -0.78,-0.31 -1.2,-0.31l-0.63 0 0 -0.48 13.13 0 0.18 3.9 -0.45 0c-0.23,-0.83 -0.49,-1.44 -0.79,-1.83 -0.3,-0.39 -0.67,-0.67 -1.1,-0.85 -0.44,-0.17 -1.12,-0.26 -2.04,-0.26l-3.89 0z"/>
   <path id="1" class="fil1" d="M234.9 134.57c2.29,0 4.28,0.87 5.96,2.62 1.68,1.74 2.52,3.91 2.52,6.52 0,2.69 -0.84,4.92 -2.54,6.69 -1.69,1.78 -3.74,2.66 -6.15,2.66 -2.42,0 -4.46,-0.87 -6.12,-2.6 -1.65,-1.73 -2.48,-3.96 -2.48,-6.71 0,-2.81 0.96,-5.1 2.86,-6.87 1.66,-1.54 3.65,-2.31 5.95,-2.31zm-0.24 0.93c-1.58,0 -2.85,0.59 -3.8,1.77 -1.19,1.46 -1.78,3.6 -1.78,6.42 0,2.88 0.61,5.11 1.84,6.66 0.95,1.19 2.2,1.78 3.75,1.78 1.66,0 3.02,-0.65 4.1,-1.95 1.08,-1.29 1.62,-3.34 1.62,-6.13 0,-3.03 -0.59,-5.29 -1.78,-6.77 -0.95,-1.18 -2.27,-1.78 -3.95,-1.78z"/>
   <path id="2" class="fil1" d="M264 152.66l-4.73 0 -6.01 -8.27c-0.43,0.02 -0.78,0.03 -1.05,0.03 -0.11,0 -0.23,-0.01 -0.36,-0.01 -0.13,-0.01 -0.26,-0.01 -0.39,-0.02l0 5.15c0,1.11 0.12,1.8 0.36,2.07 0.33,0.38 0.82,0.57 1.48,0.57l0.69 0 0 0.48 -7.58 0 0 -0.48 0.66 0c0.75,0 1.29,-0.24 1.61,-0.73 0.18,-0.26 0.27,-0.91 0.27,-1.91l0 -11.45c0,-1.11 -0.12,-1.8 -0.37,-2.07 -0.34,-0.38 -0.84,-0.57 -1.51,-0.57l-0.66 0 0 -0.48 6.44 0c1.88,0 3.27,0.14 4.16,0.41 0.89,0.28 1.64,0.78 2.26,1.52 0.63,0.73 0.94,1.61 0.94,2.62 0,1.09 -0.36,2.04 -1.07,2.84 -0.71,0.8 -1.8,1.36 -3.29,1.7l3.66 5.06c0.83,1.17 1.55,1.95 2.15,2.33 0.6,0.38 1.38,0.62 2.34,0.73l0 0.48zm-12.54 -9.1c0.16,0 0.3,0 0.42,0.01 0.12,0 0.22,0.01 0.3,0.01 1.66,0 2.92,-0.37 3.77,-1.1 0.85,-0.73 1.27,-1.66 1.27,-2.79 0,-1.1 -0.34,-2 -1.02,-2.7 -0.69,-0.68 -1.6,-1.03 -2.72,-1.03 -0.5,0 -1.18,0.08 -2.02,0.24l0 7.36z"/>
   <path id="3" class="fil1" d="M290 152.66l-4.73 0 -6.01 -8.27c-0.43,0.02 -0.78,0.03 -1.05,0.03 -0.11,0 -0.23,-0.01 -0.36,-0.01 -0.13,-0.01 -0.26,-0.01 -0.39,-0.02l0 5.15c0,1.11 0.12,1.8 0.36,2.07 0.33,0.38 0.82,0.57 1.48,0.57l0.69 0 0 0.48 -7.58 0 0 -0.48 0.67 0c0.74,0 1.28,-0.24 1.6,-0.73 0.18,-0.26 0.27,-0.91 0.27,-1.91l0 -11.45c0,-1.11 -0.12,-1.8 -0.37,-2.07 -0.33,-0.38 -0.84,-0.57 -1.5,-0.57l-0.67 0 0 -0.48 6.44 0c1.88,0 3.27,0.14 4.16,0.41 0.89,0.28 1.65,0.78 2.26,1.52 0.63,0.73 0.94,1.61 0.94,2.62 0,1.09 -0.36,2.04 -1.06,2.84 -0.72,0.8 -1.81,1.36 -3.3,1.7l3.66 5.06c0.84,1.17 1.55,1.95 2.15,2.33 0.6,0.38 1.38,0.62 2.34,0.73l0 0.48zm-12.54 -9.1c0.16,0 0.3,0 0.42,0.01 0.12,0 0.22,0.01 0.3,0.01 1.66,0 2.92,-0.37 3.77,-1.1 0.85,-0.73 1.27,-1.66 1.27,-2.79 0,-1.1 -0.34,-2 -1.02,-2.7 -0.69,-0.68 -1.6,-1.03 -2.72,-1.03 -0.5,0 -1.17,0.08 -2.02,0.24l0 7.36z"/>
   <path id="4" class="fil1" d="M296.87 135.93l0 6.99 3.89 0c1.01,0 1.68,-0.15 2.02,-0.45 0.45,-0.4 0.7,-1.1 0.76,-2.11l0.48 0 0 6.16 -0.48 0c-0.12,-0.86 -0.25,-1.41 -0.37,-1.66 -0.15,-0.3 -0.41,-0.54 -0.77,-0.71 -0.35,-0.18 -0.9,-0.27 -1.64,-0.27l-3.89 0 0 5.84c0,0.78 0.03,1.26 0.1,1.42 0.07,0.17 0.19,0.31 0.36,0.41 0.18,0.1 0.51,0.15 1,0.15l2.99 0c0.99,0 1.72,-0.07 2.17,-0.21 0.45,-0.14 0.89,-0.41 1.3,-0.82 0.54,-0.54 1.09,-1.35 1.66,-2.44l0.53 0 -1.53 4.43 -13.63 0 0 -0.48 0.63 0c0.42,0 0.81,-0.1 1.19,-0.3 0.28,-0.14 0.47,-0.35 0.57,-0.63 0.1,-0.28 0.15,-0.85 0.15,-1.71l0 -11.5c0,-1.12 -0.11,-1.81 -0.34,-2.07 -0.31,-0.35 -0.84,-0.52 -1.57,-0.52l-0.63 0 0 -0.48 13.64 0 0.18 3.9 -0.5 0c-0.18,-0.94 -0.38,-1.59 -0.61,-1.94 -0.22,-0.35 -0.55,-0.62 -0.98,-0.8 -0.35,-0.13 -0.96,-0.2 -1.84,-0.2l-4.84 0z"/>
   <path id="5" class="fil1" d="M325.48 134.57l0.45 5.58 -0.48 0c-0.46,-1.39 -1.05,-2.43 -1.78,-3.13 -1.05,-1.01 -2.39,-1.52 -4.04,-1.52 -2.24,0 -3.95,0.89 -5.12,2.68 -0.98,1.5 -1.47,3.29 -1.47,5.37 0,1.68 0.33,3.21 0.98,4.61 0.65,1.38 1.51,2.4 2.56,3.05 1.05,0.65 2.14,0.97 3.25,0.97 0.65,0 1.28,-0.08 1.89,-0.25 0.61,-0.16 1.19,-0.41 1.76,-0.73l0 -5.13c0,-0.89 -0.07,-1.47 -0.2,-1.74 -0.14,-0.28 -0.35,-0.49 -0.63,-0.63 -0.28,-0.15 -0.78,-0.22 -1.49,-0.22l0 -0.48 6.83 0 0 0.48 -0.33 0c-0.67,0 -1.14,0.23 -1.39,0.68 -0.17,0.32 -0.26,0.96 -0.26,1.91l0 5.42c-0.99,0.54 -1.98,0.94 -2.95,1.19 -0.98,0.26 -2.06,0.38 -3.24,0.38 -3.41,0 -6,-1.09 -7.77,-3.28 -1.33,-1.65 -1.99,-3.54 -1.99,-5.69 0,-1.55 0.37,-3.05 1.12,-4.47 0.88,-1.7 2.1,-3 3.64,-3.92 1.29,-0.75 2.82,-1.13 4.58,-1.13 0.64,0 1.23,0.05 1.75,0.16 0.53,0.1 1.27,0.33 2.23,0.69 0.49,0.18 0.82,0.27 0.98,0.27 0.17,0 0.3,-0.07 0.42,-0.23 0.12,-0.15 0.19,-0.44 0.22,-0.89l0.48 0z"/>
   <path id="6" class="fil1" d="M338.17 152.18l0 0.48 -7.58 0 0 -0.48 0.63 0c0.73,0 1.26,-0.21 1.6,-0.64 0.2,-0.28 0.31,-0.94 0.31,-2l0 -11.45c0,-0.89 -0.06,-1.48 -0.17,-1.77 -0.09,-0.21 -0.27,-0.4 -0.54,-0.56 -0.38,-0.21 -0.78,-0.31 -1.2,-0.31l-0.63 0 0 -0.48 7.58 0 0 0.48 -0.64 0c-0.72,0 -1.24,0.22 -1.57,0.64 -0.22,0.28 -0.33,0.94 -0.33,2l0 11.45c0,0.89 0.06,1.48 0.17,1.77 0.09,0.22 0.27,0.4 0.55,0.56 0.37,0.21 0.76,0.31 1.18,0.31l0.64 0z"/>
   <path id="7" class="fil1" d="M350.09 134.57c2.29,0 4.28,0.87 5.96,2.62 1.68,1.74 2.52,3.91 2.52,6.52 0,2.69 -0.85,4.92 -2.54,6.69 -1.69,1.78 -3.74,2.66 -6.15,2.66 -2.43,0 -4.47,-0.87 -6.12,-2.6 -1.66,-1.73 -2.48,-3.96 -2.48,-6.71 0,-2.81 0.95,-5.1 2.86,-6.87 1.66,-1.54 3.64,-2.31 5.95,-2.31zm-0.25 0.93c-1.57,0 -2.84,0.59 -3.79,1.77 -1.19,1.46 -1.79,3.6 -1.79,6.42 0,2.88 0.62,5.11 1.85,6.66 0.95,1.19 2.19,1.78 3.74,1.78 1.66,0 3.03,-0.65 4.11,-1.95 1.08,-1.29 1.62,-3.34 1.62,-6.13 0,-3.03 -0.6,-5.29 -1.79,-6.77 -0.95,-1.18 -2.26,-1.78 -3.95,-1.78z"/>
   <path id="8" class="fil1" d="M360.79 134.97l4.75 0 10.84 13.28 0 -10.21c0,-1.09 -0.12,-1.77 -0.37,-2.04 -0.32,-0.37 -0.84,-0.55 -1.54,-0.55l-0.62 0 0 -0.48 6.21 0 0 0.48 -0.63 0c-0.76,0 -1.29,0.23 -1.61,0.68 -0.19,0.28 -0.29,0.92 -0.29,1.91l0 14.91 -0.47 0 -11.65 -14.25 0 10.89c0,1.09 0.12,1.77 0.36,2.04 0.33,0.37 0.85,0.55 1.55,0.55l0.63 0 0 0.48 -6.22 0 0 -0.48 0.62 0c0.77,0 1.31,-0.23 1.63,-0.68 0.19,-0.28 0.29,-0.92 0.29,-1.91l0 -12.3c-0.51,-0.6 -0.91,-0.99 -1.17,-1.18 -0.27,-0.2 -0.65,-0.37 -1.16,-0.54 -0.26,-0.08 -0.64,-0.12 -1.15,-0.12l0 -0.48z"/>
   <path id="9" class="fil1" d="M394.17 146.76l-6.85 0 -1.18 2.78c-0.3,0.68 -0.45,1.2 -0.45,1.53 0,0.27 0.13,0.51 0.39,0.71 0.25,0.21 0.81,0.34 1.66,0.4l0 0.48 -5.58 0 0 -0.48c0.74,-0.13 1.21,-0.3 1.43,-0.51 0.45,-0.41 0.94,-1.26 1.47,-2.54l6.23 -14.56 0.44 0 6.15 14.72c0.49,1.18 0.94,1.94 1.34,2.3 0.41,0.35 0.97,0.55 1.69,0.59l0 0.48 -6.97 0 0 -0.48c0.7,-0.03 1.18,-0.15 1.43,-0.35 0.25,-0.2 0.37,-0.44 0.37,-0.73 0,-0.39 -0.18,-0.99 -0.52,-1.82l-1.05 -2.52zm-0.4 -0.96l-2.98 -7.13 -3.06 7.13 6.04 0z"/>
   <path id="10" class="fil1" d="M418.06 147.78l0.43 0.09 -1.52 4.79 -13.69 0 0 -0.48 0.67 0c0.74,0 1.28,-0.24 1.6,-0.72 0.18,-0.28 0.27,-0.92 0.27,-1.92l0 -11.45c0,-1.1 -0.12,-1.79 -0.37,-2.07 -0.34,-0.38 -0.84,-0.57 -1.5,-0.57l-0.67 0 0 -0.48 8.01 0 0 0.48c-0.94,-0.01 -1.6,0.08 -1.98,0.26 -0.38,0.18 -0.64,0.41 -0.78,0.68 -0.13,0.28 -0.2,0.93 -0.2,1.97l0 11.15c0,0.73 0.07,1.22 0.2,1.49 0.11,0.19 0.27,0.32 0.49,0.41 0.21,0.09 0.89,0.13 2.04,0.13l1.29 0c1.36,0 2.31,-0.1 2.85,-0.3 0.55,-0.2 1.05,-0.55 1.51,-1.06 0.45,-0.51 0.9,-1.31 1.35,-2.4z"/>
   <path id="11" class="fil1" d="M442.32 134.57l0.4 6 -0.4 0c-0.54,-1.79 -1.3,-3.09 -2.3,-3.88 -0.99,-0.79 -2.18,-1.19 -3.58,-1.19 -1.17,0 -2.22,0.3 -3.17,0.9 -0.94,0.59 -1.68,1.54 -2.23,2.85 -0.53,1.3 -0.8,2.93 -0.8,4.86 0,1.61 0.25,2.99 0.76,4.17 0.51,1.17 1.28,2.07 2.3,2.7 1.03,0.62 2.2,0.93 3.51,0.93 1.15,0 2.15,-0.24 3.03,-0.73 0.87,-0.49 1.83,-1.46 2.88,-2.92l0.4 0.27c-0.88,1.57 -1.91,2.71 -3.09,3.44 -1.18,0.73 -2.58,1.09 -4.2,1.09 -2.92,0 -5.19,-1.08 -6.79,-3.26 -1.19,-1.62 -1.79,-3.52 -1.79,-5.71 0,-1.76 0.39,-3.39 1.18,-4.86 0.79,-1.48 1.87,-2.63 3.25,-3.44 1.38,-0.81 2.89,-1.22 4.53,-1.22 1.27,0 2.52,0.31 3.76,0.94 0.36,0.19 0.63,0.29 0.78,0.29 0.23,0 0.44,-0.09 0.61,-0.25 0.23,-0.24 0.39,-0.56 0.48,-0.98l0.48 0z"/>
   <path id="12" class="fil1" d="M455.34 134.57c2.29,0 4.28,0.87 5.95,2.62 1.68,1.74 2.52,3.91 2.52,6.52 0,2.69 -0.84,4.92 -2.54,6.69 -1.68,1.78 -3.74,2.66 -6.14,2.66 -2.43,0 -4.47,-0.87 -6.12,-2.6 -1.66,-1.73 -2.49,-3.96 -2.49,-6.71 0,-2.81 0.96,-5.1 2.87,-6.87 1.66,-1.54 3.64,-2.31 5.95,-2.31zm-0.25 0.93c-1.58,0 -2.84,0.59 -3.79,1.77 -1.19,1.46 -1.79,3.6 -1.79,6.42 0,2.88 0.62,5.11 1.85,6.66 0.95,1.19 2.19,1.78 3.74,1.78 1.66,0 3.03,-0.65 4.11,-1.95 1.08,-1.29 1.62,-3.34 1.62,-6.13 0,-3.03 -0.6,-5.29 -1.79,-6.77 -0.95,-1.18 -2.27,-1.78 -3.95,-1.78z"/>
   <path id="13" class="fil1" d="M476.14 134.57c2.29,0 4.28,0.87 5.95,2.62 1.69,1.74 2.53,3.91 2.53,6.52 0,2.69 -0.85,4.92 -2.54,6.69 -1.69,1.78 -3.74,2.66 -6.15,2.66 -2.43,0 -4.47,-0.87 -6.12,-2.6 -1.66,-1.73 -2.48,-3.96 -2.48,-6.71 0,-2.81 0.95,-5.1 2.86,-6.87 1.66,-1.54 3.64,-2.31 5.95,-2.31zm-0.25 0.93c-1.57,0 -2.84,0.59 -3.79,1.77 -1.19,1.46 -1.79,3.6 -1.79,6.42 0,2.88 0.62,5.11 1.85,6.66 0.95,1.19 2.19,1.78 3.74,1.78 1.66,0 3.03,-0.65 4.11,-1.95 1.08,-1.29 1.62,-3.34 1.62,-6.13 0,-3.03 -0.6,-5.29 -1.79,-6.77 -0.95,-1.18 -2.26,-1.78 -3.95,-1.78z"/>
   <path id="14" class="fil1" d="M492.66 144.37l0 5.17c0,1.11 0.12,1.8 0.37,2.07 0.33,0.38 0.83,0.57 1.49,0.57l0.68 0 0 0.48 -7.58 0 0 -0.48 0.67 0c0.75,0 1.28,-0.24 1.6,-0.73 0.18,-0.26 0.27,-0.91 0.27,-1.91l0 -11.45c0,-1.11 -0.12,-1.8 -0.36,-2.07 -0.34,-0.38 -0.84,-0.57 -1.51,-0.57l-0.67 0 0 -0.48 6.49 0c1.58,0 2.82,0.17 3.74,0.49 0.91,0.33 1.68,0.88 2.31,1.65 0.62,0.77 0.94,1.69 0.94,2.75 0,1.44 -0.48,2.62 -1.43,3.52 -0.95,0.9 -2.3,1.36 -4.04,1.36 -0.42,0 -0.88,-0.03 -1.37,-0.1 -0.5,-0.05 -1.03,-0.15 -1.6,-0.27zm0 -0.75c0.46,0.09 0.87,0.16 1.23,0.2 0.35,0.04 0.66,0.06 0.9,0.06 0.91,0 1.68,-0.35 2.33,-1.05 0.66,-0.69 0.99,-1.6 0.99,-2.7 0,-0.77 -0.16,-1.48 -0.47,-2.14 -0.31,-0.65 -0.76,-1.14 -1.32,-1.46 -0.58,-0.33 -1.23,-0.49 -1.95,-0.49 -0.45,0 -1.01,0.08 -1.71,0.25l0 7.33z"/>
   <path id="15" class="fil1" d="M509.14 135.93l0 6.99 3.9 0c1.01,0 1.68,-0.15 2.02,-0.45 0.45,-0.4 0.7,-1.1 0.75,-2.11l0.48 0 0 6.16 -0.48 0c-0.12,-0.86 -0.24,-1.41 -0.36,-1.66 -0.16,-0.3 -0.41,-0.54 -0.77,-0.71 -0.36,-0.18 -0.9,-0.27 -1.64,-0.27l-3.9 0 0 5.84c0,0.78 0.04,1.26 0.11,1.42 0.07,0.17 0.19,0.31 0.36,0.41 0.17,0.1 0.51,0.15 0.99,0.15l3 0c0.99,0 1.72,-0.07 2.17,-0.21 0.45,-0.14 0.88,-0.41 1.3,-0.82 0.54,-0.54 1.09,-1.35 1.65,-2.44l0.54 0 -1.53 4.43 -13.63 0 0 -0.48 0.63 0c0.42,0 0.81,-0.1 1.19,-0.3 0.28,-0.14 0.47,-0.35 0.56,-0.63 0.11,-0.28 0.16,-0.85 0.16,-1.71l0 -11.5c0,-1.12 -0.12,-1.81 -0.34,-2.07 -0.32,-0.35 -0.84,-0.52 -1.57,-0.52l-0.63 0 0 -0.48 13.64 0 0.18 3.9 -0.5 0c-0.19,-0.94 -0.39,-1.59 -0.61,-1.94 -0.22,-0.35 -0.55,-0.62 -0.98,-0.8 -0.35,-0.13 -0.96,-0.2 -1.84,-0.2l-4.85 0z"/>
   <path id="16" class="fil1" d="M539.44 152.66l-4.73 0 -6.01 -8.27c-0.43,0.02 -0.78,0.03 -1.05,0.03 -0.11,0 -0.23,-0.01 -0.36,-0.01 -0.13,-0.01 -0.26,-0.01 -0.39,-0.02l0 5.15c0,1.11 0.12,1.8 0.36,2.07 0.33,0.38 0.82,0.57 1.48,0.57l0.69 0 0 0.48 -7.58 0 0 -0.48 0.67 0c0.74,0 1.28,-0.24 1.6,-0.73 0.18,-0.26 0.27,-0.91 0.27,-1.91l0 -11.45c0,-1.11 -0.12,-1.8 -0.37,-2.07 -0.34,-0.38 -0.84,-0.57 -1.5,-0.57l-0.67 0 0 -0.48 6.44 0c1.88,0 3.27,0.14 4.16,0.41 0.89,0.28 1.65,0.78 2.26,1.52 0.63,0.73 0.94,1.61 0.94,2.62 0,1.09 -0.36,2.04 -1.07,2.84 -0.71,0.8 -1.8,1.36 -3.29,1.7l3.66 5.06c0.84,1.17 1.55,1.95 2.15,2.33 0.6,0.38 1.38,0.62 2.34,0.73l0 0.48zm-12.54 -9.1c0.16,0 0.3,0 0.42,0.01 0.12,0 0.22,0.01 0.3,0.01 1.66,0 2.92,-0.37 3.77,-1.1 0.85,-0.73 1.27,-1.66 1.27,-2.79 0,-1.1 -0.34,-2 -1.02,-2.7 -0.69,-0.68 -1.6,-1.03 -2.72,-1.03 -0.5,0 -1.17,0.08 -2.02,0.24l0 7.36z"/>
   <path id="17" class="fil1" d="M552.96 146.76l-6.86 0 -1.18 2.78c-0.29,0.68 -0.45,1.2 -0.45,1.53 0,0.27 0.13,0.51 0.39,0.71 0.25,0.21 0.81,0.34 1.66,0.4l0 0.48 -5.58 0 0 -0.48c0.74,-0.13 1.22,-0.3 1.44,-0.51 0.44,-0.41 0.93,-1.26 1.47,-2.54l6.22 -14.56 0.44 0 6.15 14.72c0.49,1.18 0.94,1.94 1.35,2.3 0.4,0.35 0.96,0.55 1.69,0.59l0 0.48 -6.98 0 0 -0.48c0.71,-0.03 1.18,-0.15 1.43,-0.35 0.25,-0.2 0.37,-0.44 0.37,-0.73 0,-0.39 -0.17,-0.99 -0.52,-1.82l-1.04 -2.52zm-0.41 -0.96l-2.97 -7.13 -3.06 7.13 6.03 0z"/>
   <path id="18" class="fil1" d="M574.02 134.97l0.19 4.16 -0.49 0c-0.1,-0.73 -0.23,-1.25 -0.39,-1.57 -0.28,-0.5 -0.63,-0.87 -1.08,-1.11 -0.45,-0.24 -1.04,-0.36 -1.77,-0.36l-2.49 0 0 13.5c0,1.09 0.12,1.77 0.36,2.04 0.32,0.37 0.83,0.55 1.52,0.55l0.61 0 0 0.48 -7.53 0 0 -0.48 0.64 0c0.75,0 1.29,-0.23 1.61,-0.68 0.19,-0.28 0.29,-0.92 0.29,-1.91l0 -13.5 -2.13 0c-0.82,0 -1.41,0.06 -1.76,0.18 -0.45,0.17 -0.83,0.48 -1.16,0.96 -0.32,0.46 -0.51,1.1 -0.57,1.9l-0.49 0 0.18 -4.16 14.46 0z"/>
   <path id="19" class="fil1" d="M584.65 152.18l0 0.48 -7.58 0 0 -0.48 0.63 0c0.73,0 1.26,-0.21 1.6,-0.64 0.21,-0.28 0.31,-0.94 0.31,-2l0 -11.45c0,-0.89 -0.06,-1.48 -0.17,-1.77 -0.09,-0.21 -0.27,-0.4 -0.54,-0.56 -0.38,-0.21 -0.78,-0.31 -1.2,-0.31l-0.63 0 0 -0.48 7.58 0 0 0.48 -0.63 0c-0.72,0 -1.25,0.22 -1.58,0.64 -0.22,0.28 -0.32,0.94 -0.32,2l0 11.45c0,0.89 0.05,1.48 0.17,1.77 0.08,0.22 0.26,0.4 0.54,0.56 0.38,0.21 0.77,0.31 1.19,0.31l0.63 0z"/>
   <path id="20" class="fil1" d="M596.57 134.57c2.29,0 4.28,0.87 5.96,2.62 1.68,1.74 2.52,3.91 2.52,6.52 0,2.69 -0.85,4.92 -2.54,6.69 -1.69,1.78 -3.74,2.66 -6.15,2.66 -2.42,0 -4.46,-0.87 -6.12,-2.6 -1.65,-1.73 -2.48,-3.96 -2.48,-6.71 0,-2.81 0.96,-5.1 2.86,-6.87 1.66,-1.54 3.65,-2.31 5.95,-2.31zm-0.25 0.93c-1.57,0 -2.84,0.59 -3.79,1.77 -1.19,1.46 -1.78,3.6 -1.78,6.42 0,2.88 0.61,5.11 1.84,6.66 0.95,1.19 2.2,1.78 3.75,1.78 1.66,0 3.02,-0.65 4.1,-1.95 1.08,-1.29 1.62,-3.34 1.62,-6.13 0,-3.03 -0.6,-5.29 -1.78,-6.77 -0.95,-1.18 -2.27,-1.78 -3.96,-1.78z"/>
   <path id="21" class="fil1" d="M607.27 134.97l4.76 0 10.83 13.28 0 -10.21c0,-1.09 -0.12,-1.77 -0.37,-2.04 -0.32,-0.37 -0.84,-0.55 -1.54,-0.55l-0.62 0 0 -0.48 6.21 0 0 0.48 -0.63 0c-0.76,0 -1.29,0.23 -1.61,0.68 -0.19,0.28 -0.29,0.92 -0.29,1.91l0 14.91 -0.47 0 -11.64 -14.25 0 10.89c0,1.09 0.12,1.77 0.35,2.04 0.34,0.37 0.85,0.55 1.55,0.55l0.63 0 0 0.48 -6.21 0 0 -0.48 0.62 0c0.76,0 1.3,-0.23 1.62,-0.68 0.19,-0.28 0.29,-0.92 0.29,-1.91l0 -12.3c-0.51,-0.6 -0.9,-0.99 -1.17,-1.18 -0.26,-0.2 -0.65,-0.37 -1.16,-0.54 -0.25,-0.08 -0.64,-0.12 -1.15,-0.12l0 -0.48z"/>
   <path class="fil2" d="M240.01 36.62l0.37 16.28 -1.47 0c-0.7,-4.08 -2.41,-7.36 -5.14,-9.84 -2.74,-2.48 -5.68,-3.72 -8.85,-3.72 -2.46,0 -4.4,0.65 -5.82,1.97 -1.44,1.3 -2.15,2.81 -2.15,4.5 0,1.08 0.26,2.04 0.76,2.89 0.69,1.12 1.8,2.24 3.35,3.34 1.13,0.79 3.74,2.2 7.81,4.21 5.73,2.8 9.58,5.46 11.57,7.95 1.98,2.49 2.96,5.34 2.96,8.56 0,4.08 -1.6,7.58 -4.78,10.51 -3.18,2.94 -7.22,4.41 -12.12,4.41 -1.53,0 -2.99,-0.16 -4.36,-0.47 -1.37,-0.3 -3.09,-0.89 -5.15,-1.77 -1.16,-0.47 -2.1,-0.71 -2.85,-0.71 -0.63,0 -1.28,0.25 -1.98,0.73 -0.7,0.49 -1.27,1.22 -1.7,2.22l-1.25 0 0 -18.42 1.25 0c1.06,5.17 3.1,9.12 6.11,11.84 3.02,2.71 6.26,4.07 9.75,4.07 2.69,0 4.84,-0.73 6.43,-2.19 1.6,-1.47 2.4,-3.16 2.4,-5.11 0,-1.14 -0.31,-2.26 -0.92,-3.34 -0.62,-1.08 -1.54,-2.1 -2.79,-3.09 -1.25,-0.97 -3.46,-2.23 -6.63,-3.79 -4.45,-2.17 -7.64,-4.04 -9.58,-5.58 -1.93,-1.53 -3.42,-3.25 -4.46,-5.14 -1.04,-1.91 -1.56,-3.99 -1.56,-6.26 0,-3.9 1.43,-7.21 4.29,-9.95 2.85,-2.74 6.44,-4.1 10.79,-4.1 1.59,0 3.12,0.18 4.61,0.56 1.13,0.3 2.5,0.82 4.12,1.6 1.63,0.77 2.75,1.15 3.41,1.15 0.62,0 1.11,-0.18 1.47,-0.56 0.36,-0.38 0.7,-1.3 1.01,-2.75l1.1 0z"/>
   <path id="1" class="fil2" d="M319.83 72.65l-17.09 0 -2.12 4.76c-0.68,1.6 -1.01,2.93 -1.01,3.97 0,1.39 0.56,2.41 1.65,3.07 0.65,0.38 2.25,0.68 4.79,0.87l0 1.25 -16.22 0 0 -1.25c1.74,-0.27 3.19,-1.01 4.31,-2.2 1.13,-1.2 2.53,-3.68 4.17,-7.44l17.44 -38.92 0.69 0 17.6 40c1.68,3.83 3.05,6.25 4.13,7.25 0.83,0.76 1.97,1.19 3.47,1.31l0 1.25 -23.61 0 0 -1.25 0.97 0c1.9,0 3.23,-0.27 4,-0.81 0.52,-0.38 0.78,-0.94 0.78,-1.67 0,-0.44 -0.06,-0.9 -0.21,-1.36 -0.05,-0.21 -0.4,-1.13 -1.08,-2.74l-2.66 -6.09zm-1.16 -2.66l-7.28 -16.64 -7.45 16.64 14.73 0z"/>
   <path id="2" class="fil2" d="M415.93 72.65l-17.09 0 -2.12 4.76c-0.68,1.6 -1.01,2.93 -1.01,3.97 0,1.39 0.56,2.41 1.65,3.07 0.65,0.38 2.25,0.68 4.79,0.87l0 1.25 -16.22 0 0 -1.25c1.74,-0.27 3.19,-1.01 4.31,-2.2 1.13,-1.2 2.53,-3.68 4.17,-7.44l17.44 -38.92 0.69 0 17.6 40c1.68,3.83 3.05,6.25 4.13,7.25 0.83,0.76 1.97,1.19 3.47,1.31l0 1.25 -23.61 0 0 -1.25 0.97 0c1.9,0 3.23,-0.27 4,-0.81 0.52,-0.38 0.78,-0.94 0.78,-1.67 0,-0.44 -0.06,-0.9 -0.21,-1.36 -0.05,-0.21 -0.4,-1.13 -1.08,-2.74l-2.66 -6.09zm-1.16 -2.66l-7.28 -16.64 -7.45 16.64 14.73 0z"/>
   <path id="3" class="fil2" d="M501.05 64.32l0 13.78c0,2.63 0.16,4.3 0.49,4.97 0.32,0.69 0.9,1.23 1.71,1.64 0.82,0.4 2.34,0.61 4.58,0.61l0 1.25 -24.98 0 0 -1.25c2.26,0 3.79,-0.21 4.59,-0.62 0.81,-0.42 1.38,-0.98 1.7,-1.64 0.33,-0.67 0.49,-2.33 0.49,-4.96l0 -31.91c0,-2.64 -0.16,-4.29 -0.49,-4.97 -0.32,-0.69 -0.9,-1.23 -1.71,-1.63 -0.82,-0.41 -2.35,-0.62 -4.58,-0.62l0 -1.25 22.69 0c5.91,0 10.22,0.41 12.96,1.23 2.74,0.81 4.97,2.32 6.7,4.53 1.74,2.2 2.6,4.78 2.6,7.74 0,3.6 -1.31,6.58 -3.9,8.94 -1.65,1.5 -3.98,2.61 -6.96,3.35l11.7 16.54c1.55,2.13 2.66,3.45 3.31,3.98 0.98,0.74 2.13,1.14 3.44,1.22l0 1.32 -15.38 0 -15.76 -22.25 -3.2 0zm0 -23.87l0 21.29 2.05 0c3.34,0 5.84,-0.3 7.5,-0.91 1.66,-0.61 2.96,-1.72 3.91,-3.3 0.94,-1.58 1.42,-3.66 1.42,-6.21 0,-3.71 -0.87,-6.45 -2.61,-8.22 -1.75,-1.77 -4.55,-2.65 -8.42,-2.65l-3.85 0z"/>
   <path id="4" class="fil2" d="M626.7 36.62l0 16.94 -1.4 0c-1.06,-4.44 -3.01,-7.86 -5.89,-10.23 -2.87,-2.37 -6.12,-3.55 -9.76,-3.55 -3.03,0 -5.82,0.88 -8.36,2.63 -2.53,1.76 -4.39,4.05 -5.57,6.89 -1.51,3.64 -2.26,7.68 -2.26,12.12 0,4.37 0.56,8.37 1.65,11.96 1.11,3.59 2.82,6.32 5.17,8.15 2.35,1.84 5.39,2.76 9.12,2.76 3.08,0 5.87,-0.68 8.43,-2.01 2.54,-1.35 5.23,-3.66 8.06,-6.95l0 4.2c-2.73,2.86 -5.58,4.93 -8.54,6.22 -2.96,1.29 -6.41,1.93 -10.36,1.93 -5.21,0 -9.83,-1.04 -13.86,-3.13 -4.04,-2.09 -7.16,-5.1 -9.34,-9 -2.2,-3.92 -3.29,-8.08 -3.29,-12.51 0,-4.65 1.21,-9.07 3.64,-13.25 2.44,-4.17 5.71,-7.41 9.85,-9.72 4.13,-2.3 8.51,-3.45 13.17,-3.45 3.42,0 7.03,0.75 10.84,2.23 2.21,0.87 3.61,1.3 4.2,1.3 0.77,0 1.44,-0.28 2,-0.84 0.57,-0.57 0.92,-1.47 1.1,-2.69l1.4 0z"/>
  </g>
 </g>
</svg>
